<?xml version="1.0" encoding="UTF-8" standalone="no"?>
<svg
   xmlns:dc="http://purl.org/dc/elements/1.1/"
   xmlns:cc="http://creativecommons.org/ns#"
   xmlns:rdf="http://www.w3.org/1999/02/22-rdf-syntax-ns#"
   xmlns:svg="http://www.w3.org/2000/svg"
   xmlns="http://www.w3.org/2000/svg"
   xml:space="preserve"
   enable-background="new 0 0 1615.9712 1615.9712"
   viewBox="0 0 1615.9712 1615.9712"
   y="0px"
   width="60px"
   height="60px"
   x="0px"
   id="Layer_1"
   version="1.1"><metadata
     id="metadata128"><rdf:RDF><cc:Work
         rdf:about=""><dc:format>image/svg+xml</dc:format><dc:type
           rdf:resource="http://purl.org/dc/dcmitype/StillImage" /><dc:title></dc:title></cc:Work></rdf:RDF></metadata><defs
     id="defs126" /><g
     id="g3"><g
       id="g5"><g
         id="g7"><g
           id="g10"><path
             id="path12"
             d="M462.2692,71.8986c0.337-10.5666-3.0276-20.1221-9.8492-27.8474c-10.9612-12.4096-30.4363-19.8185-52.0985-19.8185      c-21.5641,0-39.9513,7.3293-49.1847,19.6073l-2.719,3.6134l4.5207-0.1173c21.8087-0.5624,38.2832,4.9843,49.0951,16.5072      c13.164,14.0286,18.5678,36.7218,16.5158,69.3701c-6.1376,24.9116-40.4518,38.3529-69.7036,38.3529      c-22.2211,0-40.021-7.0954-48.8363-19.4673c-6.8501-9.6138-8.1228-21.9665-3.7955-36.7609      c6.5059,6.7882,15.7877,10.61,26.0549,10.61c11.6438-0.0007,22.551-5.0305,29.1735-13.4555      c4.7411-6.0302,9.5633-16.6359,5.61-32.91c-2.7474-11.395-15.9043-20.6817-26.4659-22.2069      c-3.0574-0.4465-6.1049-0.6726-9.0557-0.6726c-46.2411,0-68.6271,54.6845-83.4407,90.8709      c-0.4181,1.021-0.8305,2.0293-1.2386,3.0219c-6.4462-4.5534-14.815-7.0335-23.9062-7.0335      c-14.2348,0-27.7045,6.1469-34.3157,15.659c-3.0789,4.4297-4.6379,9.4066-4.6825,14.726l4.7952,4.7952      c-1.1239-6.2764,0.0396-12.0863,3.4737-17.0276c5.8205-8.3731,17.8824-13.784,30.7292-13.784      c9.1993,0,17.5155,2.7737,23.417,7.8107l2.2881,1.9525l1.149-2.7801c0.7594-1.8401,1.5372-3.7386,2.3336-5.6854      c14.3713-35.1049,36.0875-88.1569,79.3978-88.1569c2.7403,0,5.5745,0.2112,8.4285,0.6278      c8.9618,1.2934,20.5487,9.3763,22.8468,18.9105c2.8029,11.535,1.1433,21.6259-4.798,29.1828      c-5.802,7.3798-15.4236,11.786-25.7392,11.7867c-10.3512,0-19.5305-4.3607-25.1832-11.9645l-2.4673-3.3184l-1.351,3.9085      c-6.1689,17.8589-5.0981,32.8069,3.184,44.4286c9.6458,13.5373,28.7426,21.301,52.3943,21.301      c30.9923,0,67.4596-14.6785,73.9953-41.8817l0.0569-0.3719c2.1644-34.0213-3.6177-57.8436-17.679-72.8271      c-10.8574-11.5706-26.8286-17.593-47.4868-17.9129c9.1154-8.9355,24.9102-14.34,42.5892-14.34      c20.4279,0,38.68,6.8565,48.8235,18.3424c6.9965,7.9216,9.8378,17.6051,8.4456,28.7817l-0.5631,4.52l3.8765-2.3905      c62.2733-38.4012,121.6812-59.8174,181.6039-65.4687l48.9472,0.0028c2.6962,1.3915,6.0224,2.0321,9.5107,2.4154      c-68.5119,11.8507-110.9646,19.81-160.1522,51.1038c-29.3157,18.6325-49.3795,43.2476-68.7806,67.0529      c-14.2604,17.4963-27.7301,34.0227-44.5232,48.2213c-19.4637,16.4617-56.14,34.1792-90.6747,34.1792      c-22.0163,0-38.8648-7.2425-50.0806-21.5257l-9.5235-12.1287l6.6766,16.5172c6.8515,16.9808,12.2638,30.3936,24.4864,39.8233      c12.8127,9.8549,27.8681,14.852,44.7451,14.852c43.8492,0,88.7193-33.4397,105.9746-47.8167      c15.2843-12.7345,31.1829-28.2136,48.0172-44.6021c51.6591-50.2939,110.2123-107.2992,181.0237-115.23      c6.5955-0.7366,12.9663-1.1099,18.939-1.1099c28.6772,0,49.2856,8.3752,61.2551,24.8953      c11.3082,15.5566,12.6549,34.5723,3.6931,52.1703c-9.6032,18.8551-29.155,32.0247-47.5494,32.0276      c-10.6512,0.0014-20.4733-4.3444-28.4412-12.5753c-2.2397-8.9113-1.0026-16.5129,3.6832-22.6036      c6.6026-8.5843,19.6045-13.4249,35.405-13.1747l3.4926,0.0555l-1.4803-3.1648c-10.7707-23.0338-42.0417-25.5202-54.9853-25.5202      c-6.5557,0-13.2365,0.5852-19.3187,1.6923c-41.8326,7.6151-73.5815,42.5373-99.0918,70.598      c-7.453,8.1967-14.4908,15.9391-21.2299,22.4557l-6.0921,5.8916l8.1811-2.2134c4.8691-1.3168,9.5818-2.8562,14.1395-4.3451      c12.7061-4.151,24.7097-8.0723,40.9752-8.0723c1.9141,0,3.878,0.0569,5.8347,0.1685l1.2386,0.0704l0.6954-1.0267      c1.4092-2.0819,2.8029-4.1787,4.1965-6.2755c15.0311-22.615,29.2958-44.0703,61.8083-47.7171      c-12.9648,8.4954-24.0669,17.63-20.6369,38.7333c5.2147,32.1577,45.0693,46.8042,79.8926,46.8042      c28.7213,0,59.5073-9.8022,75.2269-31.1589v-8.0712c-13.2006,23.9583-45.372,34.8615-75.2269,34.8615      c-33.033,0-70.7744-13.4982-75.5809-43.136c-3.2935-20.2636,8.0403-27.5396,22.3889-36.7509      c1.1107-0.7124,2.2298-1.4313,3.3518-2.1629l6.3708-4.1531l-7.6038,0.1401c-40.7647,0.7494-57.4725,25.885-73.6285,50.1929      c-1.1604,1.7442-2.3193,3.489-3.4883,5.2246c-1.6254-0.0739-3.248-0.1116-4.8393-0.1116      c-16.9609,0-29.8589,4.2136-42.3318,8.2885c-1.8928,0.6179-3.8126,1.245-5.7551,1.86      c4.9473-5.1208,10.0425-10.7252,15.3454-16.5577c26.3721-29.0093,56.2637-61.8887,96.6417-69.2393      c5.829-1.0609,12.2382-1.6211,18.5365-1.6211c11.4817,0,38.3401,2.0136,49.3682,19.923      c-15.5844,0.5105-28.3473,5.8582-35.2628,14.8491c-5.5703,7.2404-7.0577,16.5513-4.3046,26.9252l0.1436,0.5375l0.3811,0.4032      c8.8807,9.3863,19.9472,14.3471,32.0005,14.345c19.9714-0.0029,41.1245-14.1544,51.4415-34.4138      c9.7339-19.1139,8.2565-39.7885-4.05-56.7181c-12.834-17.716-34.6328-26.6984-64.7903-26.6984      c-6.1334,0-12.6691,0.3825-19.4239,1.1369c-72.3002,8.0979-131.4237,65.6578-183.5862,116.4416      c-16.7718,16.3274-32.6121,31.7496-47.7655,44.376c-16.8912,14.0727-60.7574,46.8042-103.1788,46.8042      c-15.8915,0-30.0495-4.6928-42.0801-13.9447c-9.3088-7.1814-14.4879-17.241-19.7254-29.7366      c11.5685,9.7738,27.0732,14.8804,45.5016,14.8804c35.6325,0,73.4436-18.2521,93.496-35.2116      c17.1017-14.4602,31.3293-31.916,45.0877-48.7979c19.1822-23.5351,39.0184-47.8721,67.7397-66.1257      c49.8375-31.7083,92.9642-39.1578,164.4126-51.4991l19.9273-3.4499l-10.3099-2.4666c-3.228-0.7722-6.9211-1.031-10.4905-1.2813      c-5.0881-0.3576-10.3497-0.7267-13.6034-2.5889l-0.5034-0.2887h-49.7237l-0.2233-0.0348l-0.2716,0.0256      C582.8512,13.5764,523.8926,34.4856,462.2692,71.8986z" /><path
             id="path14"
             d="M807.9857,220.6942c-11.3118,5.9592-23.9526,9.0803-37.9007,9.3044c-26.8812,0.4721-51.3804-9.7098-77.3372-20.462      c-25.2515-10.4592-51.3619-21.2761-79.6893-21.2761c-8.184,0-16.3565,0.9186-24.2888,2.7303l-5.5901,1.277l5.0227,2.7659      c10.0511,5.5339,43.5704,26.1481,52.8792,59.0559c4.2136,14.896,2.4957,29.8305-5.1038,44.4308      c-7.8157-7.699-14.2988-17.0476-20.5829-26.1118c-10.6441-15.3511-21.6494-31.2241-39.5502-40.1148l-1.7791-0.8831l-1.048,1.688      c-3.5438,5.7096-4.3444,13.8907-5.1194,21.803c-0.5375,5.4863-1.0908,11.1361-2.5583,15.6512      c-7.7488-2.9038-10.755-8.3318-14.1978-14.5462c-3.4001-6.1405-7.2554-13.1-16.4276-17.571      c-10.0923-4.9146-22.7145-7.5127-36.5056-7.5127c-39.1933,0-78.3227,19.5561-83.735,41.8526      c-3.8623,15.9228-1.2927,31.3933,7.0477,42.4427c6.3623,8.4286,15.536,13.2948,25.8345,13.703      c0.6058,0.0227,1.2116,0.0341,1.8032,0.0341c15.29,0,27.0433-7.6279,32.248-20.9298      c5.1351-13.1242,2.2397-28.7654-6.9453-39.4607c3.2963-0.4863,6.5159-0.7324,9.6131-0.7324      c18.4171,0,33.3615,8.8964,40.9994,24.4068c8.3915,17.0391,6.2343,38.6216-5.3654,53.7054      c-14.6245,19.0086-46.0007,31.2924-79.9353,31.2938c-33.6004,0.0028-61.3248-11.5855-74.1617-30.9966      c-10.7906-16.3195-10.9328-37.12-0.4209-61.8268l1.3666-3.211l-3.4855,0.1749c-55.1645,2.773-93.4391-14.9686-117.2515-54.4449      l-1.3197-2.19l-1.9568,1.6467c-2.666,2.2438-5.8635,4.4924-9.4855,6.6678l3.1605,3.1605      c2.6201-1.609,5.0369-3.2498,7.1711-4.9009c23.1127,36.8071,58.7139,54.7094,108.7448,54.7094      c2.527,0,5.1165-0.0469,7.7332-0.1394c-9.6202,24.4665-8.912,46.1116,2.1004,62.7639      c13.6475,20.6369,42.7343,32.9576,77.805,32.9547c35.7847-0.0014,67.7397-12.6464,83.398-33.0003      c12.5909-16.3721,14.9316-39.8005,5.8219-58.2972c-8.4016-17.0604-24.7737-26.8456-44.9185-26.8456      c-4.6245,0-9.4922,0.5105-14.4666,1.5188l-4.1851,0.8475l3.1371,2.8967c10.1762,9.4026,13.7854,24.9088,8.7784,37.7059      c-4.6942,12.0007-15.6341,18.6617-29.812,18.1227c-8.9633-0.3555-16.9595-4.606-22.5183-11.9695      c-7.5497-9.9999-9.8406-24.1351-6.2883-38.7809c4.8933-20.1563,42.7798-38.5136,79.4888-38.5136      c13.1313,0,25.0936,2.4445,34.5915,7.0719c7.9337,3.8652,11.1333,9.643,14.5206,15.7592      c3.8311,6.9155,7.7914,14.067,18.72,17.2638l1.87,0.5475l0.7551-1.7961c2.2639-5.3725,2.9337-12.2041,3.5793-18.811      c0.6428-6.5614,1.3054-13.3204,3.5338-18.1469c15.7849,8.5238,25.6269,22.7202,36.025,37.7172      c6.9595,10.0355,14.1537,20.4136,23.2535,28.7782l2.0222,1.8586l1.3552-2.3891c9.3273-16.4376,11.631-33.343,6.8501-50.2455      c-8.5338-30.1661-36.1487-50.3224-49.9484-58.7658c5.8361-0.9997,11.7746-1.5045,17.7217-1.5045      c27.4585,0,53.1608,10.6477,78.0183,20.9433c24.6969,10.2303,50.2342,20.809,77.34,20.809c0.5788,0,1.1604-0.0043,1.7392-0.0142      c13.7403-0.2209,26.3891-3.2482,37.8296-8.9523V220.6942z" /><path
             id="path16"
             d="M212.5332,183.801c-3.2793,0-7.062,0.7736-11.0679,1.592c-4.1823,0.8547-8.5067,1.7385-12.3435,1.7385      c-0.7473,0-1.4382-0.0458-2.1037-0.1134l4.392,4.392c3.5909-0.2451,7.3105-0.997,10.9298-1.7367      c3.7841-0.7736,7.3563-1.5038,10.1933-1.5038c0.8262,0,1.5571,0.0647,2.1871,0.1927      c-1.6652,7.1396-5.1823,12.5811-9.7383,16.6198l3.1381,3.1382c5.4822-4.9283,9.6163-11.7157,11.2716-20.7705l0.283-1.5479      l-1.3794-0.758C216.7766,184.2077,214.8923,183.801,212.5332,183.801z" /><path
             id="path18"
             d="M803.7209,93.3816c1.4518,2.7027,2.9078,5.4316,4.2648,8.2552v-9.5442c-0.1389-0.2585-0.2787-0.5209-0.4167-0.778      c-1.9937-3.7109-3.9007-7.2625-5.4109-10.8674c2.0177,0.1887,3.9543,0.4591,5.8276,0.7955v-4.4146      c-2.8416-0.4855-5.8244-0.826-8.9818-0.9855l-3.2238-0.1628l1.048,3.0539C798.5602,83.7756,801.0659,88.4414,803.7209,93.3816z" /></g></g><g
         id="g20"><g
           id="g24"><path
             id="path26"
             d="M71.8986,462.2692c-10.5666,0.337-20.1221-3.0276-27.8474-9.8492c-12.4096-10.9612-19.8185-30.4363-19.8185-52.0985      c0-21.5641,7.3293-39.9513,19.6073-49.1847l3.6134-2.719l-0.1173,4.5207c-0.5624,21.8087,4.9843,38.2832,16.5072,49.0951      c14.0286,13.164,36.7218,18.5678,69.3701,16.5158c24.9116-6.1376,38.3529-40.4518,38.3529-69.7036      c0-22.2211-7.0954-40.021-19.4673-48.8363c-9.6138-6.8501-21.9665-8.1228-36.7609-3.7955      c6.7882,6.5059,10.61,15.7877,10.61,26.0549c-0.0007,11.6438-5.0305,22.551-13.4555,29.1735      c-6.0302,4.7411-16.6359,9.5633-32.91,5.61c-11.395-2.7474-20.6817-15.9043-22.2069-26.4659      c-0.4465-3.0574-0.6726-6.1049-0.6726-9.0557c0-46.2411,54.6845-68.6271,90.8709-83.4407      c1.021-0.4181,2.0293-0.8305,3.0219-1.2386c-4.5534-6.4462-7.0335-14.815-7.0335-23.9062      c0-14.2348,6.1469-27.7045,15.659-34.3157c4.4297-3.0789,9.4066-4.6379,14.726-4.6825l4.7952,4.7952      c-6.2764-1.1239-12.0863,0.0396-17.0276,3.4737c-8.3731,5.8205-13.784,17.8824-13.784,30.7292      c0,9.1993,2.7737,17.5155,7.8107,23.417l1.9525,2.2881l-2.7801,1.149c-1.8401,0.7594-3.7386,1.5372-5.6854,2.3336      c-35.1049,14.3713-88.1569,36.0875-88.1569,79.3978c0,2.7403,0.2112,5.5745,0.6278,8.4285      c1.2934,8.9618,9.3763,20.5487,18.9105,22.8468c11.535,2.8029,21.6259,1.1433,29.1828-4.798      c7.3798-5.802,11.786-15.4236,11.7867-25.7392c0-10.3512-4.3607-19.5305-11.9645-25.1832l-3.3184-2.4673l3.9085-1.351      c17.8589-6.1689,32.8069-5.0981,44.4286,3.184c13.5373,9.6458,21.301,28.7426,21.301,52.3943      c0,30.9923-14.6785,67.4596-41.8817,73.9953l-0.3719,0.0569c-34.0213,2.1644-57.8436-3.6177-72.8271-17.679      c-11.5706-10.8574-17.593-26.8286-17.9129-47.4868c-8.9355,9.1154-14.34,24.9102-14.34,42.5892      c0,20.4279,6.8565,38.68,18.3424,48.8235c7.9216,6.9965,17.6051,9.8378,28.7817,8.4456l4.52-0.5631l-2.3905,3.8765      c-38.4012,62.2733-59.8174,121.6812-65.4687,181.6039l0.0028,48.9472c1.3915,2.6962,2.0321,6.0224,2.4154,9.5107      c11.8507-68.5119,19.81-110.9646,51.1038-160.1522c18.6325-29.3157,43.2476-49.3795,67.0529-68.7806      c17.4963-14.2604,34.0227-27.7301,48.2213-44.5232c16.4617-19.4637,34.1792-56.14,34.1792-90.6747      c0-22.0163-7.2425-38.8648-21.5257-50.0806l-12.1287-9.5235l16.5172,6.6766c16.9808,6.8515,30.3936,12.2638,39.8233,24.4864      c9.8549,12.8127,14.852,27.8681,14.852,44.7451c0,43.8492-33.4397,88.7193-47.8167,105.9746      c-12.7345,15.2843-28.2136,31.1829-44.6021,48.0172C110.1867,558.79,53.1814,617.3432,45.2506,688.1545      c-0.7366,6.5955-1.1099,12.9663-1.1099,18.939c0,28.6772,8.3752,49.2856,24.8953,61.2551      c15.5566,11.3082,34.5723,12.6549,52.1703,3.6931c18.8551-9.6032,32.0247-29.155,32.0276-47.5494      c0.0014-10.6512-4.3444-20.4733-12.5753-28.4412c-8.9113-2.2397-16.5129-1.0026-22.6036,3.6832      c-8.5843,6.6026-13.4249,19.6045-13.1747,35.405l0.0555,3.4926l-3.1648-1.4803      c-23.0338-10.7707-25.5202-42.0417-25.5202-54.9853c0-6.5557,0.5852-13.2365,1.6923-19.3187      c7.6151-41.8326,42.5373-73.5815,70.598-99.0918c8.1967-7.453,15.9391-14.4908,22.4557-21.2299l5.8916-6.0921l-2.2134,8.1811      c-1.3168,4.8691-2.8562,9.5818-4.3451,14.1395c-4.151,12.7061-8.0723,24.7097-8.0723,40.9752      c0,1.9141,0.0569,3.878,0.1685,5.8347l0.0704,1.2386l-1.0267,0.6954c-2.0819,1.4092-4.1787,2.8029-6.2755,4.1965      c-22.615,15.0311-44.0703,29.2958-47.7171,61.8083c8.4954-12.9648,17.63-24.0669,38.7333-20.6369      c32.1577,5.2147,46.8042,45.0693,46.8042,79.8926c0,28.7213-9.8022,59.5073-31.1589,75.2269h-8.0712      c23.9583-13.2006,34.8615-45.372,34.8615-75.2269c0-33.033-13.4982-70.7744-43.136-75.5809      c-20.2636-3.2935-27.5396,8.0403-36.7509,22.3889c-0.7124,1.1107-1.4313,2.2298-2.1629,3.3518l-4.1531,6.3708l0.1401-7.6038      c0.7494-40.7647,25.885-57.4725,50.1929-73.6285c1.7442-1.1604,3.489-2.3193,5.2246-3.4883      c-0.0739-1.6254-0.1116-3.248-0.1116-4.8393c0-16.9609,4.2136-29.8589,8.2885-42.3318c0.6179-1.8928,1.245-3.8126,1.86-5.7551      c-5.1208,4.9473-10.7252,10.0425-16.5577,15.3454c-29.0093,26.3721-61.8887,56.2637-69.2393,96.6417      c-1.0609,5.829-1.6211,12.2382-1.6211,18.5365c0,11.4817,2.0136,38.3401,19.923,49.3682      c0.5105-15.5844,5.8582-28.3473,14.8491-35.2628c7.2404-5.5703,16.5513-7.0577,26.9252-4.3046l0.5375,0.1436l0.4032,0.3811      c9.3863,8.8807,14.3471,19.9472,14.345,32.0005c-0.0029,19.9714-14.1544,41.1245-34.4138,51.4415      c-19.1139,9.7339-39.7885,8.2565-56.7181-4.05c-17.716-12.834-26.6984-34.6328-26.6984-64.7903      c0-6.1334,0.3825-12.6691,1.1369-19.4239c8.0979-72.3002,65.6578-131.4237,116.4416-183.5862      c16.3274-16.7718,31.7496-32.6121,44.376-47.7655c14.0727-16.8912,46.8042-60.7574,46.8042-103.1788      c0-15.8915-4.6928-30.0495-13.9447-42.0801c-7.1814-9.3088-17.241-14.4879-29.7366-19.7254      c9.7738,11.5685,14.8804,27.0732,14.8804,45.5016c0,35.6325-18.2521,73.4436-35.2116,93.496      c-14.4602,17.1017-31.916,31.3293-48.7979,45.0877c-23.5351,19.1822-47.8721,39.0184-66.1257,67.7397      c-31.7083,49.8375-39.1578,92.9642-51.4991,164.4126l-3.4499,19.9273l-2.4666-10.3099      c-0.7722-3.228-1.031-6.9211-1.2813-10.4905c-0.3576-5.0881-0.7267-10.3497-2.5889-13.6034l-0.2887-0.5034v-49.7237      l-0.0348-0.2233l0.0256-0.2716C13.5764,582.8512,34.4856,523.8926,71.8986,462.2692z" /><path
             id="path28"
             d="M220.6942,807.9857c5.9592-11.3118,9.0803-23.9526,9.3044-37.9007c0.4721-26.8812-9.7098-51.3804-20.462-77.3372      c-10.4592-25.2515-21.2761-51.3619-21.2761-79.6893c0-8.184,0.9186-16.3565,2.7303-24.2888l1.277-5.5901l2.7659,5.0227      c5.5339,10.0511,26.1481,43.5704,59.0559,52.8792c14.896,4.2136,29.8305,2.4957,44.4308-5.1038      c-7.699-7.8157-17.0476-14.2988-26.1118-20.5829c-15.3511-10.6441-31.2241-21.6494-40.1148-39.5502l-0.8831-1.7791l1.688-1.048      c5.7096-3.5438,13.8907-4.3444,21.803-5.1194c5.4863-0.5375,11.1361-1.0908,15.6512-2.5583      c-2.9038-7.7488-8.3318-10.755-14.5462-14.1978c-6.1405-3.4001-13.1-7.2554-17.571-16.4276      c-4.9146-10.0923-7.5127-22.7145-7.5127-36.5056c0-39.1933,19.5561-78.3227,41.8526-83.735      c15.9228-3.8623,31.3933-1.2927,42.4427,7.0477c8.4286,6.3623,13.2948,15.536,13.703,25.8345      c0.0227,0.6058,0.0341,1.2116,0.0341,1.8032c0,15.29-7.6279,27.0433-20.9298,32.248      c-13.1242,5.1351-28.7654,2.2397-39.4607-6.9453c-0.4863,3.2963-0.7324,6.5159-0.7324,9.6131      c0,18.4171,8.8964,33.3615,24.4068,40.9994c17.0391,8.3915,38.6216,6.2343,53.7054-5.3654      c19.0086-14.6245,31.2924-46.0007,31.2938-79.9353c0.0028-33.6004-11.5855-61.3248-30.9966-74.1617      c-16.3195-10.7906-37.12-10.9328-61.8268-0.4209l-3.211,1.3666l0.1749-3.4855c2.773-55.1645-14.9686-93.4391-54.4449-117.2515      l-2.19-1.3197l1.6467-1.9568c2.2438-2.666,4.4924-5.8635,6.6678-9.4855l3.1605,3.1605      c-1.609,2.6201-3.2498,5.0369-4.9009,7.1711c36.8071,23.1127,54.7094,58.7139,54.7094,108.7448      c0,2.527-0.0469,5.1165-0.1394,7.7332c24.4665-9.6202,46.1116-8.912,62.7639,2.1004      c20.6369,13.6475,32.9576,42.7343,32.9547,77.805c-0.0014,35.7847-12.6464,67.7397-33.0003,83.398      c-16.3721,12.5909-39.8005,14.9316-58.2972,5.8219c-17.0604-8.4016-26.8456-24.7737-26.8456-44.9185      c0-4.6245,0.5105-9.4922,1.5188-14.4666l0.8475-4.1851l2.8967,3.1371c9.4026,10.1762,24.9088,13.7854,37.7059,8.7784      c12.0007-4.6942,18.6617-15.6341,18.1227-29.812c-0.3555-8.9633-4.606-16.9595-11.9695-22.5183      c-9.9999-7.5497-24.1351-9.8406-38.7809-6.2883c-20.1563,4.8933-38.5136,42.7798-38.5136,79.4888      c0,13.1313,2.4445,25.0936,7.0719,34.5915c3.8652,7.9337,9.643,11.1333,15.7592,14.5206      c6.9155,3.8311,14.067,7.7914,17.2638,18.72l0.5475,1.87l-1.7961,0.7551c-5.3725,2.2639-12.2041,2.9337-18.811,3.5793      c-6.5614,0.6428-13.3204,1.3054-18.1469,3.5338c8.5238,15.7849,22.7202,25.6269,37.7172,36.025      c10.0355,6.9595,20.4136,14.1537,28.7782,23.2535l1.8586,2.0222l-2.3891,1.3552c-16.4376,9.3273-33.343,11.631-50.2455,6.8501      c-30.1661-8.5338-50.3224-36.1487-58.7658-49.9484c-0.9997,5.8361-1.5045,11.7746-1.5045,17.7217      c0,27.4585,10.6477,53.1608,20.9433,78.0183c10.2303,24.6969,20.809,50.2342,20.809,77.34c0,0.5788-0.0043,1.1604-0.0142,1.7392      c-0.2209,13.7403-3.2482,26.3891-8.9523,37.8296H220.6942z" /><path
             id="path30"
             d="M183.801,212.5332c0-3.2793,0.7736-7.062,1.592-11.0679c0.8547-4.1823,1.7385-8.5067,1.7385-12.3435      c0-0.7473-0.0458-1.4382-0.1134-2.1037l4.392,4.392c-0.2451,3.5909-0.997,7.3105-1.7367,10.9298      c-0.7736,3.7841-1.5038,7.3563-1.5038,10.1933c0,0.8262,0.0647,1.5571,0.1927,2.1871      c7.1396-1.6652,12.5811-5.1823,16.6198-9.7383l3.1382,3.1381c-4.9283,5.4822-11.7157,9.6163-20.7705,11.2716l-1.5479,0.283      l-0.758-1.3794C184.2077,216.7766,183.801,214.8923,183.801,212.5332z" /><path
             id="path32"
             d="M93.3816,803.7209c2.7027,1.4518,5.4316,2.9078,8.2552,4.2648h-9.5442c-0.2585-0.1389-0.5209-0.2787-0.778-0.4167      c-3.7109-1.9937-7.2625-3.9007-10.8674-5.4109c0.1887,2.0177,0.4591,3.9543,0.7955,5.8276h-4.4146      c-0.4855-2.8416-0.826-5.8244-0.9855-8.9818l-0.1628-3.2238l3.0539,1.048C83.7756,798.5602,88.4414,801.0659,93.3816,803.7209z" /></g></g></g><g
       id="g34"><g
         id="g36"><g
           id="g40"><path
             id="path42"
             d="M1544.0726,462.2692c10.5667,0.337,20.1221-3.0276,27.8474-9.8492c12.4097-10.9612,19.8186-30.4363,19.8186-52.0985      c0-21.5641-7.3293-39.9513-19.6074-49.1847l-3.6134-2.719l0.1173,4.5207c0.5624,21.8087-4.9843,38.2832-16.5072,49.0951      c-14.0287,13.164-36.7218,18.5678-69.3701,16.5158c-24.9116-6.1376-38.3529-40.4518-38.3529-69.7036      c0-22.2211,7.0953-40.021,19.4673-48.8363c9.6138-6.8501,21.9664-8.1228,36.7609-3.7955      c-6.7882,6.5059-10.61,15.7877-10.61,26.0549c0.0007,11.6438,5.0305,22.551,13.4556,29.1735      c6.0302,4.7411,16.6359,9.5633,32.9099,5.61c11.3949-2.7474,20.6816-15.9043,22.2069-26.4659      c0.4465-3.0574,0.6726-6.1049,0.6726-9.0557c0-46.2411-54.6846-68.6271-90.871-83.4407      c-1.021-0.4181-2.0292-0.8305-3.0219-1.2386c4.5535-6.4462,7.0336-14.815,7.0336-23.9062      c0-14.2348-6.1469-27.7045-15.6591-34.3157c-4.4297-3.0789-9.4066-4.6379-14.726-4.6825l-4.7953,4.7952      c6.2765-1.1239,12.0864,0.0396,17.0277,3.4737c8.373,5.8205,13.7839,17.8824,13.7839,30.7292      c0,9.1993-2.7737,17.5155-7.8107,23.417l-1.9524,2.2881l2.78,1.149c1.8402,0.7594,3.7386,1.5372,5.6854,2.3336      c35.105,14.3713,88.157,36.0875,88.157,79.3978c0,2.7403-0.2112,5.5745-0.6279,8.4285      c-1.2933,8.9618-9.3763,20.5487-18.9105,22.8468c-11.535,2.8029-21.6259,1.1433-29.1827-4.798      c-7.3798-5.802-11.786-15.4236-11.7867-25.7392c0-10.3512,4.3607-19.5305,11.9645-25.1832l3.3184-2.4673l-3.9084-1.351      c-17.8589-6.1689-32.8069-5.0981-44.4287,3.184c-13.5372,9.6458-21.3009,28.7426-21.3009,52.3943      c0,30.9923,14.6785,67.4596,41.8817,73.9953l0.3718,0.0569c34.0214,2.1644,57.8436-3.6177,72.8271-17.679      c11.5706-10.8574,17.593-26.8286,17.913-47.4868c8.9354,9.1154,14.34,24.9102,14.34,42.5892      c0,20.4279-6.8564,38.68-18.3424,48.8235c-7.9215,6.9965-17.605,9.8378-28.7817,8.4456l-4.52-0.5631l2.3905,3.8765      c38.4012,62.2733,59.8175,121.6812,65.4688,181.6039l-0.0029,48.9472c-1.3915,2.6962-2.0321,6.0224-2.4153,9.5107      c-11.8507-68.5119-19.8101-110.9646-51.1038-160.1522c-18.6326-29.3157-43.2477-49.3795-67.0529-68.7806      c-17.4963-14.2604-34.0228-27.7301-48.2213-44.5232c-16.4618-19.4637-34.1792-56.14-34.1792-90.6747      c0-22.0163,7.2426-38.8648,21.5258-50.0806l12.1287-9.5235l-16.5172,6.6766c-16.9807,6.8515-30.3936,12.2638-39.8232,24.4864      c-9.8549,12.8127-14.8519,27.8681-14.8519,44.7451c0,43.8492,33.4397,88.7193,47.8167,105.9746      c12.7345,15.2843,28.2136,31.1829,44.6022,48.0172c50.2938,51.6591,107.2992,110.2123,115.23,181.0237      c0.7366,6.5955,1.1099,12.9663,1.1099,18.939c0,28.6772-8.3751,49.2856-24.8951,61.2551      c-15.5566,11.3082-34.5724,12.6549-52.1704,3.6931c-18.855-9.6032-32.0247-29.155-32.0276-47.5494      c-0.0013-10.6512,4.3445-20.4733,12.5753-28.4412c8.9113-2.2397,16.5129-1.0026,22.6036,3.6832      c8.5842,6.6026,13.4249,19.6045,13.1746,35.405l-0.0554,3.4926l3.1648-1.4803c23.0338-10.7707,25.5203-42.0417,25.5203-54.9853      c0-6.5557-0.5852-13.2365-1.6923-19.3187c-7.6151-41.8326-42.5374-73.5815-70.598-99.0918      c-8.1968-7.453-15.9392-14.4908-22.4558-21.2299l-5.8915-6.0921l2.2134,8.1811c1.3169,4.8691,2.8562,9.5818,4.3451,14.1395      c4.151,12.7061,8.0723,24.7097,8.0723,40.9752c0,1.9141-0.0569,3.878-0.1685,5.8347l-0.0704,1.2386l1.0267,0.6954      c2.0819,1.4092,4.1787,2.8029,6.2756,4.1965c22.6149,15.0311,44.0702,29.2958,47.717,61.8083      c-8.4954-12.9648-17.6299-24.0669-38.7333-20.6369c-32.1577,5.2147-46.8042,45.0693-46.8042,79.8926      c0,28.7213,9.8022,59.5073,31.1589,75.2269h8.0712c-23.9584-13.2006-34.8615-45.372-34.8615-75.2269      c0-33.033,13.4982-70.7744,43.136-75.5809c20.2635-3.2935,27.5396,8.0403,36.7509,22.3889      c0.7125,1.1107,1.4314,2.2298,2.163,3.3518l4.1532,6.3708l-0.1401-7.6038c-0.7494-40.7647-25.885-57.4725-50.193-73.6285      c-1.7441-1.1604-3.489-2.3193-5.2246-3.4883c0.074-1.6254,0.1117-3.248,0.1117-4.8393c0-16.9609-4.2136-29.8589-8.2885-42.3318      c-0.6179-1.8928-1.245-3.8126-1.8601-5.7551c5.1208,4.9473,10.7252,10.0425,16.5577,15.3454      c29.0093,26.3721,61.8887,56.2637,69.2393,96.6417c1.0609,5.829,1.6212,12.2382,1.6212,18.5365      c0,11.4817-2.0137,38.3401-19.9231,49.3682c-0.5105-15.5844-5.8582-28.3473-14.8491-35.2628      c-7.2404-5.5703-16.5513-7.0577-26.9252-4.3046l-0.5376,0.1436l-0.4032,0.3811c-9.3862,8.8807-14.347,19.9472-14.345,32.0005      c0.0028,19.9714,14.1544,41.1245,34.4138,51.4415c19.1139,9.7339,39.7885,8.2565,56.718-4.05      c17.7161-12.834,26.6985-34.6328,26.6985-64.7903c0-6.1334-0.3826-12.6691-1.137-19.4239      c-8.0979-72.3002-65.6578-131.4237-116.4417-183.5862c-16.3274-16.7718-31.7495-32.6121-44.376-47.7655      c-14.0728-16.8912-46.8042-60.7574-46.8042-103.1788c0-15.8915,4.6927-30.0495,13.9447-42.0801      c7.1814-9.3088,17.241-14.4879,29.7366-19.7254c-9.7738,11.5685-14.8804,27.0732-14.8804,45.5016      c0,35.6325,18.2521,73.4436,35.2115,93.496c14.4602,17.1017,31.916,31.3293,48.798,45.0877      c23.535,19.1822,47.8721,39.0184,66.1256,67.7397c31.7084,49.8375,39.1578,92.9642,51.4991,164.4126l3.45,19.9273      l2.4666-10.3099c0.7721-3.228,1.031-6.9211,1.2813-10.4905c0.3577-5.0881,0.7267-10.3497,2.5889-13.6034l0.2887-0.5034v-49.7237      l0.0348-0.2233l-0.0256-0.2716C1602.3948,582.8512,1581.4856,523.8926,1544.0726,462.2692z" /><path
             id="path44"
             d="M1395.277,807.9857c-5.9592-11.3118-9.0803-23.9526-9.3044-37.9007c-0.4722-26.8812,9.7098-51.3804,20.462-77.3372      c10.4592-25.2515,21.2761-51.3619,21.2761-79.6893c0-8.184-0.9187-16.3565-2.7303-24.2888l-1.2771-5.5901l-2.7659,5.0227      c-5.5339,10.0511-26.1481,43.5704-59.0559,52.8792c-14.896,4.2136-29.8306,2.4957-44.4308-5.1038      c7.699-7.8157,17.0476-14.2988,26.1118-20.5829c15.3511-10.6441,31.2241-21.6494,40.1149-39.5502l0.8831-1.7791l-1.688-1.048      c-5.7096-3.5438-13.8906-4.3444-21.803-5.1194c-5.4863-0.5375-11.1361-1.0908-15.6511-2.5583      c2.9038-7.7488,8.3318-10.755,14.5461-14.1978c6.1405-3.4001,13.1001-7.2554,17.571-16.4276      c4.9146-10.0923,7.5127-22.7145,7.5127-36.5056c0-39.1933-19.5562-78.3227-41.8525-83.735      c-15.9229-3.8623-31.3934-1.2927-42.4427,7.0477c-8.4286,6.3623-13.2948,15.536-13.703,25.8345      c-0.0227,0.6058-0.0341,1.2116-0.0341,1.8032c0,15.29,7.6279,27.0433,20.9298,32.248      c13.1241,5.1351,28.7654,2.2397,39.4607-6.9453c0.4863,3.2963,0.7323,6.5159,0.7323,9.6131      c0,18.4171-8.8964,33.3615-24.4067,40.9994c-17.0391,8.3915-38.6217,6.2343-53.7054-5.3654      c-19.0087-14.6245-31.2924-46.0007-31.2938-79.9353c-0.0028-33.6004,11.5856-61.3248,30.9966-74.1617      c16.3196-10.7906,37.12-10.9328,61.8268-0.4209l3.2111,1.3666l-0.1749-3.4855c-2.7729-55.1645,14.9686-93.4391,54.4449-117.2515      l2.1899-1.3197l-1.6467-1.9568c-2.2439-2.666-4.4924-5.8635-6.6678-9.4855l-3.1605,3.1605      c1.6089,2.6201,3.2499,5.0369,4.9009,7.1711c-36.8071,23.1127-54.7094,58.7139-54.7094,108.7448      c0,2.527,0.0469,5.1165,0.1394,7.7332c-24.4666-9.6202-46.1117-8.912-62.764,2.1004      c-20.6368,13.6475-32.9575,42.7343-32.9547,77.805c0.0015,35.7847,12.6464,67.7397,33.0002,83.398      c16.3722,12.5909,39.8005,14.9316,58.2972,5.8219c17.0604-8.4016,26.8456-24.7737,26.8456-44.9185      c0-4.6245-0.5105-9.4922-1.5187-14.4666l-0.8475-4.1851l-2.8967,3.1371c-9.4027,10.1762-24.9088,13.7854-37.7059,8.7784      c-12.0007-4.6942-18.6616-15.6341-18.1227-29.812c0.3556-8.9633,4.6061-16.9595,11.9695-22.5183      c9.9999-7.5497,24.1351-9.8406,38.7809-6.2883c20.1563,4.8933,38.5137,42.7798,38.5137,79.4888      c0,13.1313-2.4446,25.0936-7.0719,34.5915c-3.8652,7.9337-9.6431,11.1333-15.7593,14.5206      c-6.9154,3.8311-14.067,7.7914-17.2638,18.72l-0.5475,1.87l1.796,0.7551c5.3726,2.2639,12.2041,2.9337,18.811,3.5793      c6.5614,0.6428,13.3204,1.3054,18.1469,3.5338c-8.5238,15.7849-22.7202,25.6269-37.7172,36.025      c-10.0355,6.9595-20.4137,14.1537-28.7782,23.2535l-1.8586,2.0222l2.389,1.3552c16.4375,9.3273,33.343,11.631,50.2456,6.8501      c30.166-8.5338,50.3223-36.1487,58.7657-49.9484c0.9998,5.8361,1.5045,11.7746,1.5045,17.7217      c0,27.4585-10.6476,53.1608-20.9434,78.0183c-10.2302,24.6969-20.809,50.2342-20.809,77.34      c0,0.5788,0.0043,1.1604,0.0143,1.7392c0.2209,13.7403,3.2482,26.3891,8.9523,37.8296H1395.277z" /><path
             id="path46"
             d="M1432.1702,212.5332c0-3.2793-0.7736-7.062-1.5919-11.0679c-0.8547-4.1823-1.7385-8.5067-1.7385-12.3435      c0-0.7473,0.0458-1.4382,0.1134-2.1037l-4.392,4.392c0.2451,3.5909,0.9971,7.3105,1.7367,10.9298      c0.7736,3.7841,1.5038,7.3563,1.5038,10.1933c0,0.8262-0.0647,1.5571-0.1926,2.1871      c-7.1396-1.6652-12.5812-5.1823-16.6198-9.7383l-3.1383,3.1381c4.9283,5.4822,11.7157,9.6163,20.7705,11.2716l1.548,0.283      l0.7579-1.3794C1431.7635,216.7766,1432.1702,214.8923,1432.1702,212.5332z" /><path
             id="path48"
             d="M1522.5896,803.7209c-2.7026,1.4518-5.4316,2.9078-8.2552,4.2648h9.5443c0.2584-0.1389,0.5209-0.2787,0.778-0.4167      c3.7108-1.9937,7.2625-3.9007,10.8673-5.4109c-0.1887,2.0177-0.4591,3.9543-0.7954,5.8276h4.4146      c0.4856-2.8416,0.826-5.8244,0.9855-8.9818l0.1628-3.2238l-3.0538,1.048      C1532.1957,798.5602,1527.5299,801.0659,1522.5896,803.7209z" /></g></g><g
         id="g50"><g
           id="g54"><path
             id="path56"
             d="M1153.702,71.8986c-0.337-10.5666,3.0275-20.1221,9.8491-27.8474c10.9612-12.4096,30.4363-19.8185,52.0985-19.8185      c21.5641,0,39.9513,7.3293,49.1847,19.6073l2.719,3.6134l-4.5208-0.1173c-21.8086-0.5624-38.2832,4.9843-49.0951,16.5072      c-13.1639,14.0286-18.5677,36.7218-16.5157,69.3701c6.1376,24.9116,40.4518,38.3529,69.7035,38.3529      c22.2211,0,40.021-7.0954,48.8363-19.4673c6.8501-9.6138,8.1228-21.9665,3.7955-36.7609      c-6.506,6.7882-15.7877,10.61-26.0549,10.61c-11.6438-0.0007-22.551-5.0305-29.1736-13.4555      c-4.7411-6.0302-9.5632-16.6359-5.61-32.91c2.7474-11.395,15.9043-20.6817,26.4659-22.2069      c3.0574-0.4465,6.1049-0.6726,9.0557-0.6726c46.2411,0,68.6271,54.6845,83.4407,90.8709      c0.4181,1.021,0.8304,2.0293,1.2385,3.0219c6.4463-4.5534,14.8151-7.0335,23.9063-7.0335      c14.2349,0,27.7046,6.1469,34.3157,15.659c3.079,4.4297,4.6379,9.4066,4.6825,14.726l-4.7952,4.7952      c1.1239-6.2764-0.0397-12.0863-3.4738-17.0276c-5.8204-8.3731-17.8823-13.784-30.7292-13.784      c-9.1992,0-17.5155,2.7737-23.417,7.8107l-2.2881,1.9525l-1.149-2.7801c-0.7594-1.8401-1.5372-3.7386-2.3336-5.6854      c-14.3713-35.1049-36.0875-88.1569-79.3977-88.1569c-2.7404,0-5.5745,0.2112-8.4286,0.6278      c-8.9618,1.2934-20.5487,9.3763-22.8467,18.9105c-2.803,11.535-1.1434,21.6259,4.798,29.1828      c5.802,7.3798,15.4236,11.786,25.7393,11.7867c10.3512,0,19.5305-4.3607,25.1832-11.9645l2.4673-3.3184l1.351,3.9085      c6.1688,17.8589,5.098,32.8069-3.1841,44.4286c-9.6458,13.5373-28.7426,21.301-52.3943,21.301      c-30.9923,0-67.4595-14.6785-73.9952-41.8817l-0.0569-0.3719c-2.1644-34.0213,3.6177-57.8436,17.679-72.8271      c10.8574-11.5706,26.8285-17.593,47.4868-17.9129c-9.1155-8.9355-24.9103-14.34-42.5892-14.34      c-20.4279,0-38.6799,6.8565-48.8235,18.3424c-6.9966,7.9216-9.8378,17.6051-8.4457,28.7817l0.5632,4.52l-3.8766-2.3905      c-62.2733-38.4012-121.6812-59.8174-181.6038-65.4687l-48.9473,0.0028c-2.6962,1.3915-6.0224,2.0321-9.5107,2.4154      c68.5118,11.8507,110.9646,19.81,160.1521,51.1038c29.3157,18.6325,49.3795,43.2476,68.7806,67.0529      c14.2604,17.4963,27.7301,34.0227,44.5232,48.2213c19.4637,16.4617,56.14,34.1792,90.6747,34.1792      c22.0164,0,38.8649-7.2425,50.0806-21.5257l9.5236-12.1287l-6.6765,16.5172c-6.8516,16.9808-12.2639,30.3936-24.4865,39.8233      c-12.8127,9.8549-27.868,14.852-44.745,14.852c-43.8492,0-88.7194-33.4397-105.9746-47.8167      c-15.2843-12.7345-31.1829-28.2136-48.0172-44.6021c-51.6591-50.2939-110.2123-107.2992-181.0237-115.23      c-6.5955-0.7366-12.9663-1.1099-18.939-1.1099c-28.6772,0-49.2856,8.3752-61.2551,24.8953      c-11.3082,15.5566-12.6549,34.5723-3.6931,52.1703c9.6031,18.8551,29.155,32.0247,47.5493,32.0276      c10.6512,0.0014,20.4734-4.3444,28.4412-12.5753c2.2397-8.9113,1.0026-16.5129-3.6832-22.6036      c-6.6026-8.5843-19.6044-13.4249-35.405-13.1747l-3.4926,0.0555l1.4803-3.1648c10.7707-23.0338,42.0417-25.5202,54.9853-25.5202      c6.5557,0,13.2365,0.5852,19.3187,1.6923c41.8326,7.6151,73.5815,42.5373,99.0919,70.598      c7.453,8.1967,14.4907,15.9391,21.2299,22.4557l6.092,5.8916l-8.181-2.2134c-4.8691-1.3168-9.5818-2.8562-14.1395-4.3451      c-12.7061-4.151-24.7097-8.0723-40.9752-8.0723c-1.9141,0-3.878,0.0569-5.8347,0.1685l-1.2386,0.0704l-0.6954-1.0267      c-1.4092-2.0819-2.8029-4.1787-4.1965-6.2755c-15.0311-22.615-29.2958-44.0703-61.8083-47.7171      c12.9649,8.4954,24.0669,17.63,20.6369,38.7333c-5.2147,32.1577-45.0693,46.8042-79.8926,46.8042      c-28.7213,0-59.5073-9.8022-75.2269-31.1589v-8.0712c13.2006,23.9583,45.372,34.8615,75.2269,34.8615      c33.033,0,70.7744-13.4982,75.5809-43.136c3.2935-20.2636-8.0403-27.5396-22.3889-36.7509      c-1.1107-0.7124-2.2298-1.4313-3.3518-2.1629l-6.3708-4.1531l7.6037,0.1401c40.7647,0.7494,57.4725,25.885,73.6285,50.1929      c1.1604,1.7442,2.3194,3.489,3.4883,5.2246c1.6254-0.0739,3.248-0.1116,4.8393-0.1116c16.9609,0,29.8589,4.2136,42.3318,8.2885      c1.8927,0.6179,3.8125,1.245,5.755,1.86c-4.9473-5.1208-10.0426-10.7252-15.3455-16.5577      c-26.372-29.0093-56.2637-61.8887-96.6415-69.2393c-5.829-1.0609-12.2383-1.6211-18.5366-1.6211      c-11.4817,0-38.3401,2.0136-49.3682,19.923c15.5844,0.5105,28.3474,5.8582,35.2628,14.8491      c5.5702,7.2404,7.0576,16.5513,4.3046,26.9252l-0.1437,0.5375l-0.3811,0.4032c-8.8807,9.3863-19.9472,14.3471-32.0005,14.345      c-19.9714-0.0029-41.1245-14.1544-51.4415-34.4138c-9.7339-19.1139-8.2565-39.7885,4.05-56.7181      c12.834-17.716,34.6328-26.6984,64.7903-26.6984c6.1334,0,12.6691,0.3825,19.4239,1.1369      c72.3002,8.0979,131.4238,65.6578,183.5862,116.4416c16.7717,16.3274,32.6121,31.7496,47.7655,44.376      c16.8911,14.0727,60.7573,46.8042,103.1788,46.8042c15.8915,0,30.0494-4.6928,42.0801-13.9447      c9.3087-7.1814,14.4879-17.241,19.7253-29.7366c-11.5685,9.7738-27.0731,14.8804-45.5016,14.8804      c-35.6324,0-73.4436-18.2521-93.496-35.2116c-17.1017-14.4602-31.3293-31.916-45.0878-48.7979      c-19.1821-23.5351-39.0184-47.8721-67.7397-66.1257c-49.8374-31.7083-92.9642-39.1578-164.4126-51.4991l-19.9273-3.4499      l10.3099-2.4666c3.228-0.7722,6.9211-1.031,10.4905-1.2813c5.0881-0.3576,10.3497-0.7267,13.6034-2.5889l0.5034-0.2887h49.7237      l0.2233-0.0348l0.2716,0.0256C1033.12,13.5764,1092.0785,34.4856,1153.702,71.8986z" /><path
             id="path58"
             d="M807.9855,220.6942c11.3118,5.9592,23.9526,9.0803,37.9007,9.3044c26.8812,0.4721,51.3804-9.7098,77.3372-20.462      c25.2515-10.4592,51.3619-21.2761,79.6893-21.2761c8.184,0,16.3565,0.9186,24.2888,2.7303l5.5901,1.277l-5.0227,2.7659      c-10.0511,5.5339-43.5704,26.1481-52.8792,59.0559c-4.2136,14.896-2.4957,29.8305,5.1038,44.4308      c7.8157-7.699,14.2988-17.0476,20.5829-26.1118c10.6441-15.3511,21.6494-31.2241,39.5502-40.1148l1.7791-0.8831l1.0481,1.688      c3.5437,5.7096,4.3444,13.8907,5.1194,21.803c0.5375,5.4863,1.0907,11.1361,2.5582,15.6512      c7.7488-2.9038,10.755-8.3318,14.1979-14.5462c3.4001-6.1405,7.2552-13.1,16.4276-17.571      c10.0923-4.9146,22.7145-7.5127,36.5056-7.5127c39.1934,0,78.3226,19.5561,83.735,41.8526      c3.8623,15.9228,1.2927,31.3933-7.0477,42.4427c-6.3623,8.4286-15.5359,13.2948-25.8345,13.703      c-0.6058,0.0227-1.2115,0.0341-1.8032,0.0341c-15.2899,0-27.0432-7.6279-32.2479-20.9298      c-5.1351-13.1242-2.2397-28.7654,6.9453-39.4607c-3.2964-0.4863-6.5159-0.7324-9.6132-0.7324      c-18.417,0-33.3615,8.8964-40.9993,24.4068c-8.3916,17.0391-6.2344,38.6216,5.3654,53.7054      c14.6245,19.0086,46.0007,31.2924,79.9353,31.2938c33.6003,0.0028,61.3248-11.5855,74.1617-30.9966      c10.7905-16.3195,10.9327-37.12,0.4209-61.8268l-1.3666-3.211l3.4855,0.1749c55.1644,2.773,93.4391-14.9686,117.2515-54.4449      l1.3197-2.19l1.9568,1.6467c2.6659,2.2438,5.8634,4.4924,9.4855,6.6678l-3.1605,3.1605      c-2.6202-1.609-5.037-3.2498-7.1711-4.9009c-23.1127,36.8071-58.7139,54.7094-108.7448,54.7094      c-2.527,0-5.1166-0.0469-7.7332-0.1394c9.6202,24.4665,8.9121,46.1116-2.1003,62.7639      c-13.6475,20.6369-42.7343,32.9576-77.8051,32.9547c-35.7847-0.0014-67.7397-12.6464-83.3979-33.0003      c-12.5909-16.3721-14.9316-39.8005-5.8219-58.2972c8.4015-17.0604,24.7736-26.8456,44.9185-26.8456      c4.6245,0,9.4923,0.5105,14.4667,1.5188l4.1851,0.8475l-3.1371,2.8967c-10.1763,9.4026-13.7854,24.9088-8.7783,37.7059      c4.6942,12.0007,15.634,18.6617,29.812,18.1227c8.9633-0.3555,16.9595-4.606,22.5183-11.9695      c7.5497-9.9999,9.8406-24.1351,6.2883-38.7809c-4.8933-20.1563-42.7798-38.5136-79.4888-38.5136      c-13.1313,0-25.0936,2.4445-34.5916,7.0719c-7.9337,3.8652-11.1333,9.643-14.5206,15.7592      c-3.8311,6.9155-7.7915,14.067-18.72,17.2638l-1.87,0.5475l-0.7551-1.7961c-2.2639-5.3725-2.9337-12.2041-3.5793-18.811      c-0.6427-6.5614-1.3054-13.3204-3.5338-18.1469c-15.7848,8.5238-25.6269,22.7202-36.025,37.7172      c-6.9595,10.0355-14.1537,20.4136-23.2535,28.7782l-2.0222,1.8586l-1.3552-2.3891c-9.3273-16.4376-11.631-33.343-6.85-50.2455      c8.5338-30.1661,36.1487-50.3224,49.9483-58.7658c-5.8361-0.9997-11.7746-1.5045-17.7217-1.5045      c-27.4585,0-53.1608,10.6477-78.0183,20.9433c-24.6969,10.2303-50.2342,20.809-77.34,20.809      c-0.5788,0-1.1604-0.0043-1.7392-0.0142c-13.7403-0.2209-26.3891-3.2482-37.8296-8.9523V220.6942z" /><path
             id="path60"
             d="M1403.4381,183.801c3.2792,0,7.0619,0.7736,11.0679,1.592c4.1823,0.8547,8.5067,1.7385,12.3434,1.7385      c0.7473,0,1.4382-0.0458,2.1038-0.1134l-4.392,4.392c-3.5909-0.2451-7.3104-0.997-10.9298-1.7367      c-3.7841-0.7736-7.3563-1.5038-10.1932-1.5038c-0.8263,0-1.5573,0.0647-2.1871,0.1927      c1.6652,7.1396,5.1823,12.5811,9.7382,16.6198l-3.1381,3.1382c-5.4822-4.9283-9.6163-11.7157-11.2716-20.7705l-0.283-1.5479      l1.3794-0.758C1399.1946,184.2077,1401.0789,183.801,1403.4381,183.801z" /><path
             id="path62"
             d="M812.2503,93.3816c-1.4517,2.7027-2.9078,5.4316-4.2648,8.2552v-9.5442c0.1389-0.2585,0.2787-0.5209,0.4167-0.778      c1.9937-3.7109,3.9007-7.2625,5.4109-10.8674c-2.0178,0.1887-3.9544,0.4591-5.8276,0.7955v-4.4146      c2.8417-0.4855,5.8244-0.826,8.9818-0.9855l3.2238-0.1628l-1.0481,3.0539C817.4109,83.7756,814.9053,88.4414,812.2503,93.3816z" /></g></g></g><g
       id="g64"><g
         id="g66"><g
           id="g70"><path
             id="path72"
             d="M1153.702,1544.0726c-0.337,10.5667,3.0275,20.1221,9.8491,27.8474c10.9612,12.4097,30.4363,19.8186,52.0985,19.8186      c21.5641,0,39.9513-7.3293,49.1847-19.6074l2.719-3.6134l-4.5208,0.1173c-21.8086,0.5624-38.2832-4.9843-49.0951-16.5072      c-13.1639-14.0287-18.5677-36.7218-16.5157-69.3701c6.1376-24.9116,40.4518-38.3529,69.7035-38.3529      c22.2211,0,40.021,7.0953,48.8363,19.4673c6.8501,9.6138,8.1228,21.9664,3.7955,36.7609      c-6.506-6.7882-15.7877-10.61-26.0549-10.61c-11.6438,0.0007-22.551,5.0305-29.1736,13.4556      c-4.7411,6.0302-9.5632,16.6359-5.61,32.9099c2.7474,11.3949,15.9043,20.6816,26.4659,22.2069      c3.0574,0.4465,6.1049,0.6726,9.0557,0.6726c46.2411,0,68.6271-54.6846,83.4407-90.871      c0.4181-1.021,0.8304-2.0292,1.2385-3.0219c6.4463,4.5535,14.8151,7.0336,23.9063,7.0336      c14.2349,0,27.7046-6.1469,34.3157-15.6591c3.079-4.4297,4.6379-9.4066,4.6825-14.726l-4.7952-4.7953      c1.1239,6.2765-0.0397,12.0864-3.4738,17.0277c-5.8204,8.373-17.8823,13.7839-30.7292,13.7839      c-9.1992,0-17.5155-2.7737-23.417-7.8107l-2.2881-1.9524l-1.149,2.78c-0.7594,1.8402-1.5372,3.7386-2.3336,5.6854      c-14.3713,35.105-36.0875,88.157-79.3977,88.157c-2.7404,0-5.5745-0.2112-8.4286-0.6279      c-8.9618-1.2933-20.5487-9.3763-22.8467-18.9105c-2.803-11.535-1.1434-21.6259,4.798-29.1827      c5.802-7.3798,15.4236-11.786,25.7393-11.7867c10.3512,0,19.5305,4.3607,25.1832,11.9645l2.4673,3.3184l1.351-3.9084      c6.1688-17.8589,5.098-32.8069-3.1841-44.4287c-9.6458-13.5372-28.7426-21.3009-52.3943-21.3009      c-30.9923,0-67.4595,14.6785-73.9952,41.8817l-0.0569,0.3718c-2.1644,34.0214,3.6177,57.8436,17.679,72.8271      c10.8574,11.5706,26.8285,17.593,47.4868,17.913c-9.1155,8.9354-24.9103,14.34-42.5892,14.34      c-20.4279,0-38.6799-6.8564-48.8235-18.3424c-6.9966-7.9215-9.8378-17.605-8.4457-28.7817l0.5632-4.52l-3.8766,2.3905      c-62.2733,38.4012-121.6812,59.8175-181.6038,65.4688l-48.9473-0.0029c-2.6962-1.3915-6.0224-2.0321-9.5107-2.4153      c68.5118-11.8507,110.9646-19.8101,160.1521-51.1038c29.3157-18.6326,49.3795-43.2477,68.7806-67.0529      c14.2604-17.4963,27.7301-34.0228,44.5232-48.2213c19.4637-16.4618,56.14-34.1792,90.6747-34.1792      c22.0164,0,38.8649,7.2426,50.0806,21.5258l9.5236,12.1287l-6.6765-16.5172c-6.8516-16.9807-12.2639-30.3936-24.4865-39.8232      c-12.8127-9.8549-27.868-14.8519-44.745-14.8519c-43.8492,0-88.7194,33.4397-105.9746,47.8167      c-15.2843,12.7345-31.1829,28.2136-48.0172,44.6022c-51.6591,50.2938-110.2123,107.2992-181.0237,115.23      c-6.5955,0.7366-12.9663,1.1099-18.939,1.1099c-28.6772,0-49.2856-8.3751-61.2551-24.8951      c-11.3082-15.5566-12.6549-34.5724-3.6931-52.1704c9.6031-18.855,29.155-32.0247,47.5493-32.0276      c10.6512-0.0013,20.4734,4.3445,28.4412,12.5753c2.2397,8.9113,1.0026,16.5129-3.6832,22.6036      c-6.6026,8.5842-19.6044,13.4249-35.405,13.1746l-3.4926-0.0554l1.4803,3.1648c10.7707,23.0338,42.0417,25.5203,54.9853,25.5203      c6.5557,0,13.2365-0.5852,19.3187-1.6923c41.8326-7.6151,73.5815-42.5374,99.0919-70.598      c7.453-8.1968,14.4907-15.9392,21.2299-22.4558l6.092-5.8915l-8.181,2.2134c-4.8691,1.3169-9.5818,2.8562-14.1395,4.3451      c-12.7061,4.151-24.7097,8.0723-40.9752,8.0723c-1.9141,0-3.878-0.0569-5.8347-0.1685l-1.2386-0.0704l-0.6954,1.0267      c-1.4092,2.0819-2.8029,4.1787-4.1965,6.2756c-15.0311,22.6149-29.2958,44.0702-61.8083,47.717      c12.9649-8.4954,24.0669-17.6299,20.6369-38.7333c-5.2147-32.1577-45.0693-46.8042-79.8926-46.8042      c-28.7213,0-59.5073,9.8022-75.2269,31.1589v8.0712c13.2006-23.9584,45.372-34.8615,75.2269-34.8615      c33.033,0,70.7744,13.4982,75.5809,43.136c3.2935,20.2635-8.0403,27.5396-22.3889,36.7509      c-1.1107,0.7125-2.2298,1.4314-3.3518,2.163l-6.3708,4.1532l7.6037-0.1401c40.7647-0.7494,57.4725-25.885,73.6285-50.193      c1.1604-1.7441,2.3194-3.489,3.4883-5.2246c1.6254,0.074,3.248,0.1117,4.8393,0.1117c16.9609,0,29.8589-4.2136,42.3318-8.2885      c1.8927-0.6179,3.8125-1.245,5.755-1.8601c-4.9473,5.1208-10.0426,10.7252-15.3455,16.5577      c-26.372,29.0093-56.2637,61.8887-96.6415,69.2393c-5.829,1.0609-12.2383,1.6212-18.5366,1.6212      c-11.4817,0-38.3401-2.0137-49.3682-19.9231c15.5844-0.5105,28.3474-5.8582,35.2628-14.8491      c5.5702-7.2404,7.0576-16.5513,4.3046-26.9252l-0.1437-0.5376l-0.3811-0.4032c-8.8807-9.3862-19.9472-14.347-32.0005-14.345      c-19.9714,0.0028-41.1245,14.1544-51.4415,34.4138c-9.7339,19.1139-8.2565,39.7885,4.05,56.718      c12.834,17.7161,34.6328,26.6985,64.7903,26.6985c6.1334,0,12.6691-0.3826,19.4239-1.137      c72.3002-8.0979,131.4238-65.6578,183.5862-116.4417c16.7717-16.3274,32.6121-31.7495,47.7655-44.376      c16.8911-14.0728,60.7573-46.8042,103.1788-46.8042c15.8915,0,30.0494,4.6927,42.0801,13.9447      c9.3087,7.1814,14.4879,17.241,19.7253,29.7366c-11.5685-9.7738-27.0731-14.8804-45.5016-14.8804      c-35.6324,0-73.4436,18.2521-93.496,35.2115c-17.1017,14.4602-31.3293,31.916-45.0878,48.798      c-19.1821,23.535-39.0184,47.8721-67.7397,66.1256c-49.8374,31.7084-92.9642,39.1578-164.4126,51.4991l-19.9273,3.45      l10.3099,2.4666c3.228,0.7721,6.9211,1.031,10.4905,1.2813c5.0881,0.3577,10.3497,0.7267,13.6034,2.5889l0.5034,0.2887h49.7237      l0.2233,0.0348l0.2716-0.0256C1033.12,1602.3948,1092.0785,1581.4856,1153.702,1544.0726z" /><path
             id="path74"
             d="M807.9855,1395.277c11.3118-5.9592,23.9526-9.0803,37.9007-9.3044c26.8812-0.4722,51.3804,9.7098,77.3372,20.462      c25.2515,10.4592,51.3619,21.2761,79.6893,21.2761c8.184,0,16.3565-0.9187,24.2888-2.7303l5.5901-1.2771l-5.0227-2.7659      c-10.0511-5.5339-43.5704-26.1481-52.8792-59.0559c-4.2136-14.896-2.4957-29.8306,5.1038-44.4308      c7.8157,7.699,14.2988,17.0476,20.5829,26.1118c10.6441,15.3511,21.6494,31.2241,39.5502,40.1149l1.7791,0.8831l1.0481-1.688      c3.5437-5.7096,4.3444-13.8906,5.1194-21.803c0.5375-5.4863,1.0907-11.1361,2.5582-15.6511      c7.7488,2.9038,10.755,8.3318,14.1979,14.5461c3.4001,6.1405,7.2552,13.1001,16.4276,17.571      c10.0923,4.9146,22.7145,7.5127,36.5056,7.5127c39.1934,0,78.3226-19.5562,83.735-41.8525      c3.8623-15.9229,1.2927-31.3934-7.0477-42.4427c-6.3623-8.4286-15.5359-13.2948-25.8345-13.703      c-0.6058-0.0227-1.2115-0.0341-1.8032-0.0341c-15.2899,0-27.0432,7.6279-32.2479,20.9298      c-5.1351,13.1241-2.2397,28.7654,6.9453,39.4607c-3.2964,0.4863-6.5159,0.7323-9.6132,0.7323      c-18.417,0-33.3615-8.8964-40.9993-24.4067c-8.3916-17.0391-6.2344-38.6217,5.3654-53.7054      c14.6245-19.0087,46.0007-31.2924,79.9353-31.2938c33.6003-0.0028,61.3248,11.5856,74.1617,30.9966      c10.7905,16.3196,10.9327,37.12,0.4209,61.8268l-1.3666,3.2111l3.4855-0.1749c55.1644-2.7729,93.4391,14.9686,117.2515,54.4449      l1.3197,2.1899l1.9568-1.6467c2.6659-2.2439,5.8634-4.4924,9.4855-6.6678l-3.1605-3.1605      c-2.6202,1.6089-5.037,3.2499-7.1711,4.9009c-23.1127-36.8071-58.7139-54.7094-108.7448-54.7094      c-2.527,0-5.1166,0.0469-7.7332,0.1394c9.6202-24.4666,8.9121-46.1117-2.1003-62.764      c-13.6475-20.6368-42.7343-32.9575-77.8051-32.9547c-35.7847,0.0015-67.7397,12.6464-83.3979,33.0002      c-12.5909,16.3722-14.9316,39.8005-5.8219,58.2972c8.4015,17.0604,24.7736,26.8456,44.9185,26.8456      c4.6245,0,9.4923-0.5105,14.4667-1.5187l4.1851-0.8475l-3.1371-2.8967c-10.1763-9.4027-13.7854-24.9088-8.7783-37.7059      c4.6942-12.0007,15.634-18.6616,29.812-18.1227c8.9633,0.3556,16.9595,4.6061,22.5183,11.9695      c7.5497,9.9999,9.8406,24.1351,6.2883,38.7809c-4.8933,20.1563-42.7798,38.5137-79.4888,38.5137      c-13.1313,0-25.0936-2.4446-34.5916-7.0719c-7.9337-3.8652-11.1333-9.6431-14.5206-15.7593      c-3.8311-6.9154-7.7915-14.067-18.72-17.2638l-1.87-0.5475l-0.7551,1.796c-2.2639,5.3726-2.9337,12.2041-3.5793,18.811      c-0.6427,6.5614-1.3054,13.3204-3.5338,18.1469c-15.7848-8.5238-25.6269-22.7202-36.025-37.7172      c-6.9595-10.0355-14.1537-20.4137-23.2535-28.7782l-2.0222-1.8586l-1.3552,2.389c-9.3273,16.4375-11.631,33.343-6.85,50.2456      c8.5338,30.166,36.1487,50.3223,49.9483,58.7657c-5.8361,0.9998-11.7746,1.5045-17.7217,1.5045      c-27.4585,0-53.1608-10.6476-78.0183-20.9434c-24.6969-10.2302-50.2342-20.809-77.34-20.809      c-0.5788,0-1.1604,0.0043-1.7392,0.0143c-13.7403,0.2209-26.3891,3.2482-37.8296,8.9523V1395.277z" /><path
             id="path76"
             d="M1403.4381,1432.1702c3.2792,0,7.0619-0.7736,11.0679-1.5919c4.1823-0.8547,8.5067-1.7385,12.3434-1.7385      c0.7473,0,1.4382,0.0458,2.1038,0.1134l-4.392-4.392c-3.5909,0.2451-7.3104,0.9971-10.9298,1.7367      c-3.7841,0.7736-7.3563,1.5038-10.1932,1.5038c-0.8263,0-1.5573-0.0647-2.1871-0.1926      c1.6652-7.1396,5.1823-12.5812,9.7382-16.6198l-3.1381-3.1383c-5.4822,4.9283-9.6163,11.7157-11.2716,20.7705l-0.283,1.548      l1.3794,0.7579C1399.1946,1431.7635,1401.0789,1432.1702,1403.4381,1432.1702z" /><path
             id="path78"
             d="M812.2503,1522.5896c-1.4517-2.7026-2.9078-5.4316-4.2648-8.2552v9.5443c0.1389,0.2584,0.2787,0.5209,0.4167,0.778      c1.9937,3.7108,3.9007,7.2625,5.4109,10.8673c-2.0178-0.1887-3.9544-0.4591-5.8276-0.7954v4.4146      c2.8417,0.4856,5.8244,0.826,8.9818,0.9855l3.2238,0.1628l-1.0481-3.0538      C817.4109,1532.1957,814.9053,1527.5299,812.2503,1522.5896z" /></g></g><g
         id="g80"><g
           id="g84"><path
             id="path86"
             d="M1544.0726,1153.702c10.5667-0.337,20.1221,3.0275,27.8474,9.8491c12.4097,10.9612,19.8186,30.4363,19.8186,52.0985      c0,21.5641-7.3293,39.9513-19.6074,49.1847l-3.6134,2.719l0.1173-4.5208c0.5624-21.8086-4.9843-38.2832-16.5072-49.0951      c-14.0287-13.1639-36.7218-18.5677-69.3701-16.5157c-24.9116,6.1376-38.3529,40.4518-38.3529,69.7035      c0,22.2211,7.0953,40.021,19.4673,48.8363c9.6138,6.8501,21.9664,8.1228,36.7609,3.7955      c-6.7882-6.506-10.61-15.7877-10.61-26.0549c0.0007-11.6438,5.0305-22.551,13.4556-29.1736      c6.0302-4.7411,16.6359-9.5632,32.9099-5.61c11.3949,2.7474,20.6816,15.9043,22.2069,26.4659      c0.4465,3.0574,0.6726,6.1049,0.6726,9.0557c0,46.2411-54.6846,68.6271-90.871,83.4407      c-1.021,0.4181-2.0292,0.8304-3.0219,1.2385c4.5535,6.4463,7.0336,14.8151,7.0336,23.9063      c0,14.2349-6.1469,27.7046-15.6591,34.3157c-4.4297,3.079-9.4066,4.6379-14.726,4.6825l-4.7953-4.7952      c6.2765,1.1239,12.0864-0.0397,17.0277-3.4738c8.373-5.8204,13.7839-17.8823,13.7839-30.7292      c0-9.1992-2.7737-17.5155-7.8107-23.417l-1.9524-2.2881l2.78-1.149c1.8402-0.7594,3.7386-1.5372,5.6854-2.3336      c35.105-14.3713,88.157-36.0875,88.157-79.3977c0-2.7404-0.2112-5.5745-0.6279-8.4286      c-1.2933-8.9618-9.3763-20.5487-18.9105-22.8467c-11.535-2.803-21.6259-1.1434-29.1827,4.798      c-7.3798,5.802-11.786,15.4236-11.7867,25.7393c0,10.3512,4.3607,19.5305,11.9645,25.1832l3.3184,2.4673l-3.9084,1.351      c-17.8589,6.1688-32.8069,5.098-44.4287-3.1841c-13.5372-9.6458-21.3009-28.7426-21.3009-52.3943      c0-30.9923,14.6785-67.4595,41.8817-73.9952l0.3718-0.0569c34.0214-2.1644,57.8436,3.6177,72.8271,17.679      c11.5706,10.8574,17.593,26.8285,17.913,47.4868c8.9354-9.1155,14.34-24.9103,14.34-42.5892      c0-20.4279-6.8564-38.6799-18.3424-48.8235c-7.9215-6.9966-17.605-9.8378-28.7817-8.4457l-4.52,0.5632l2.3905-3.8766      c38.4012-62.2733,59.8175-121.6812,65.4688-181.6038l-0.0029-48.9473c-1.3915-2.6962-2.0321-6.0224-2.4153-9.5107      c-11.8507,68.5118-19.8101,110.9646-51.1038,160.1521c-18.6326,29.3157-43.2477,49.3795-67.0529,68.7806      c-17.4963,14.2604-34.0228,27.7301-48.2213,44.5232c-16.4618,19.4637-34.1792,56.14-34.1792,90.6747      c0,22.0164,7.2426,38.8649,21.5258,50.0806l12.1287,9.5236l-16.5172-6.6765c-16.9807-6.8516-30.3936-12.2639-39.8232-24.4865      c-9.8549-12.8127-14.8519-27.868-14.8519-44.745c0-43.8492,33.4397-88.7194,47.8167-105.9746      c12.7345-15.2843,28.2136-31.1829,44.6022-48.0172c50.2938-51.6591,107.2992-110.2123,115.23-181.0237      c0.7366-6.5955,1.1099-12.9663,1.1099-18.939c0-28.6772-8.3751-49.2856-24.8951-61.2551      c-15.5566-11.3082-34.5724-12.6549-52.1704-3.6931c-18.855,9.6031-32.0247,29.155-32.0276,47.5493      c-0.0013,10.6512,4.3445,20.4734,12.5753,28.4412c8.9113,2.2397,16.5129,1.0026,22.6036-3.6832      c8.5842-6.6026,13.4249-19.6044,13.1746-35.405l-0.0554-3.4926l3.1648,1.4803c23.0338,10.7707,25.5203,42.0417,25.5203,54.9853      c0,6.5557-0.5852,13.2365-1.6923,19.3187c-7.6151,41.8326-42.5374,73.5815-70.598,99.0919      c-8.1968,7.453-15.9392,14.4907-22.4558,21.2299l-5.8915,6.092l2.2134-8.181c1.3169-4.8691,2.8562-9.5818,4.3451-14.1395      c4.151-12.7061,8.0723-24.7097,8.0723-40.9752c0-1.9141-0.0569-3.878-0.1685-5.8347l-0.0704-1.2386l1.0267-0.6954      c2.0819-1.4092,4.1787-2.8029,6.2756-4.1965c22.6149-15.0311,44.0702-29.2958,47.717-61.8083      c-8.4954,12.9649-17.6299,24.0669-38.7333,20.6369c-32.1577-5.2147-46.8042-45.0693-46.8042-79.8926      c0-28.7213,9.8022-59.5073,31.1589-75.2269h8.0712c-23.9584,13.2006-34.8615,45.372-34.8615,75.2269      c0,33.033,13.4982,70.7744,43.136,75.5809c20.2635,3.2935,27.5396-8.0403,36.7509-22.3889      c0.7125-1.1107,1.4314-2.2298,2.163-3.3518l4.1532-6.3708l-0.1401,7.6037c-0.7494,40.7647-25.885,57.4725-50.193,73.6285      c-1.7441,1.1604-3.489,2.3194-5.2246,3.4883c0.074,1.6254,0.1117,3.248,0.1117,4.8393c0,16.9609-4.2136,29.8589-8.2885,42.3318      c-0.6179,1.8927-1.245,3.8125-1.8601,5.755c5.1208-4.9473,10.7252-10.0426,16.5577-15.3455      c29.0093-26.372,61.8887-56.2637,69.2393-96.6415c1.0609-5.829,1.6212-12.2383,1.6212-18.5366      c0-11.4817-2.0137-38.3401-19.9231-49.3682c-0.5105,15.5844-5.8582,28.3474-14.8491,35.2628      c-7.2404,5.5702-16.5513,7.0576-26.9252,4.3046l-0.5376-0.1437l-0.4032-0.3811c-9.3862-8.8807-14.347-19.9472-14.345-32.0005      c0.0028-19.9714,14.1544-41.1245,34.4138-51.4415c19.1139-9.7339,39.7885-8.2565,56.718,4.05      c17.7161,12.834,26.6985,34.6328,26.6985,64.7903c0,6.1334-0.3826,12.6691-1.137,19.4239      c-8.0979,72.3002-65.6578,131.4238-116.4417,183.5862c-16.3274,16.7717-31.7495,32.6121-44.376,47.7655      c-14.0728,16.8911-46.8042,60.7573-46.8042,103.1788c0,15.8915,4.6927,30.0494,13.9447,42.0801      c7.1814,9.3087,17.241,14.4879,29.7366,19.7253c-9.7738-11.5685-14.8804-27.0731-14.8804-45.5016      c0-35.6324,18.2521-73.4436,35.2115-93.496c14.4602-17.1017,31.916-31.3293,48.798-45.0878      c23.535-19.1821,47.8721-39.0184,66.1256-67.7397c31.7084-49.8374,39.1578-92.9642,51.4991-164.4126l3.45-19.9273      l2.4666,10.3099c0.7721,3.228,1.031,6.9211,1.2813,10.4905c0.3577,5.0881,0.7267,10.3497,2.5889,13.6034l0.2887,0.5034v49.7237      l0.0348,0.2233l-0.0256,0.2716C1602.3948,1033.12,1581.4856,1092.0785,1544.0726,1153.702z" /><path
             id="path88"
             d="M1395.277,807.9855c-5.9592,11.3118-9.0803,23.9526-9.3044,37.9007c-0.4722,26.8812,9.7098,51.3804,20.462,77.3372      c10.4592,25.2515,21.2761,51.3619,21.2761,79.6893c0,8.184-0.9187,16.3565-2.7303,24.2888l-1.2771,5.5901l-2.7659-5.0227      c-5.5339-10.0511-26.1481-43.5704-59.0559-52.8792c-14.896-4.2136-29.8306-2.4957-44.4308,5.1038      c7.699,7.8157,17.0476,14.2988,26.1118,20.5829c15.3511,10.6441,31.2241,21.6494,40.1149,39.5502l0.8831,1.7791l-1.688,1.0481      c-5.7096,3.5437-13.8906,4.3444-21.803,5.1194c-5.4863,0.5375-11.1361,1.0907-15.6511,2.5582      c2.9038,7.7488,8.3318,10.755,14.5461,14.1979c6.1405,3.4001,13.1001,7.2552,17.571,16.4276      c4.9146,10.0923,7.5127,22.7145,7.5127,36.5056c0,39.1934-19.5562,78.3226-41.8525,83.735      c-15.9229,3.8623-31.3934,1.2927-42.4427-7.0477c-8.4286-6.3623-13.2948-15.5359-13.703-25.8345      c-0.0227-0.6058-0.0341-1.2115-0.0341-1.8032c0-15.2899,7.6279-27.0432,20.9298-32.2479      c13.1241-5.1351,28.7654-2.2397,39.4607,6.9453c0.4863-3.2964,0.7323-6.5159,0.7323-9.6132      c0-18.417-8.8964-33.3615-24.4067-40.9993c-17.0391-8.3916-38.6217-6.2344-53.7054,5.3654      c-19.0087,14.6245-31.2924,46.0007-31.2938,79.9353c-0.0028,33.6003,11.5856,61.3248,30.9966,74.1617      c16.3196,10.7905,37.12,10.9327,61.8268,0.4209l3.2111-1.3666l-0.1749,3.4855c-2.7729,55.1644,14.9686,93.4391,54.4449,117.2515      l2.1899,1.3197l-1.6467,1.9568c-2.2439,2.6659-4.4924,5.8634-6.6678,9.4855l-3.1605-3.1605      c1.6089-2.6202,3.2499-5.037,4.9009-7.1711c-36.8071-23.1127-54.7094-58.7139-54.7094-108.7448      c0-2.527,0.0469-5.1166,0.1394-7.7332c-24.4666,9.6202-46.1117,8.9121-62.764-2.1003      c-20.6368-13.6475-32.9575-42.7343-32.9547-77.8051c0.0015-35.7847,12.6464-67.7397,33.0002-83.3979      c16.3722-12.5909,39.8005-14.9316,58.2972-5.8219c17.0604,8.4015,26.8456,24.7736,26.8456,44.9185      c0,4.6245-0.5105,9.4923-1.5187,14.4667l-0.8475,4.1851l-2.8967-3.1371c-9.4027-10.1763-24.9088-13.7854-37.7059-8.7783      c-12.0007,4.6942-18.6616,15.634-18.1227,29.812c0.3556,8.9633,4.6061,16.9595,11.9695,22.5183      c9.9999,7.5497,24.1351,9.8406,38.7809,6.2883c20.1563-4.8933,38.5137-42.7798,38.5137-79.4888      c0-13.1313-2.4446-25.0936-7.0719-34.5916c-3.8652-7.9337-9.6431-11.1333-15.7593-14.5206      c-6.9154-3.8311-14.067-7.7915-17.2638-18.72l-0.5475-1.87l1.796-0.7551c5.3726-2.2639,12.2041-2.9337,18.811-3.5793      c6.5614-0.6427,13.3204-1.3054,18.1469-3.5338c-8.5238-15.7848-22.7202-25.6269-37.7172-36.025      c-10.0355-6.9595-20.4137-14.1537-28.7782-23.2535l-1.8586-2.0222l2.389-1.3552c16.4375-9.3273,33.343-11.631,50.2456-6.85      c30.166,8.5338,50.3223,36.1487,58.7657,49.9483c0.9998-5.8361,1.5045-11.7746,1.5045-17.7217      c0-27.4585-10.6476-53.1608-20.9434-78.0183c-10.2302-24.6969-20.809-50.2342-20.809-77.34      c0-0.5788,0.0043-1.1604,0.0143-1.7392c0.2209-13.7403,3.2482-26.3891,8.9523-37.8296H1395.277z" /><path
             id="path90"
             d="M1432.1702,1403.4381c0,3.2792-0.7736,7.0619-1.5919,11.0679c-0.8547,4.1823-1.7385,8.5067-1.7385,12.3434      c0,0.7473,0.0458,1.4382,0.1134,2.1038l-4.392-4.392c0.2451-3.5909,0.9971-7.3104,1.7367-10.9298      c0.7736-3.7841,1.5038-7.3563,1.5038-10.1932c0-0.8263-0.0647-1.5573-0.1926-2.1871      c-7.1396,1.6652-12.5812,5.1823-16.6198,9.7382l-3.1383-3.1381c4.9283-5.4822,11.7157-9.6163,20.7705-11.2716l1.548-0.283      l0.7579,1.3794C1431.7635,1399.1946,1432.1702,1401.0789,1432.1702,1403.4381z" /><path
             id="path92"
             d="M1522.5896,812.2503c-2.7026-1.4517-5.4316-2.9078-8.2552-4.2648h9.5443c0.2584,0.1389,0.5209,0.2787,0.778,0.4167      c3.7108,1.9937,7.2625,3.9007,10.8673,5.4109c-0.1887-2.0178-0.4591-3.9544-0.7954-5.8276h4.4146      c0.4856,2.8417,0.826,5.8244,0.9855,8.9818l0.1628,3.2238l-3.0538-1.0481      C1532.1957,817.4109,1527.5299,814.9053,1522.5896,812.2503z" /></g></g></g><g
       id="g94"><g
         id="g96"><g
           id="g100"><path
             id="path102"
             d="M71.8986,1153.702c-10.5666-0.337-20.1221,3.0275-27.8474,9.8491c-12.4096,10.9612-19.8185,30.4363-19.8185,52.0985      c0,21.5641,7.3293,39.9513,19.6073,49.1847l3.6134,2.719l-0.1173-4.5208c-0.5624-21.8086,4.9843-38.2832,16.5072-49.0951      c14.0286-13.1639,36.7218-18.5677,69.3701-16.5157c24.9116,6.1376,38.3529,40.4518,38.3529,69.7035      c0,22.2211-7.0954,40.021-19.4673,48.8363c-9.6138,6.8501-21.9665,8.1228-36.7609,3.7955      c6.7882-6.506,10.61-15.7877,10.61-26.0549c-0.0007-11.6438-5.0305-22.551-13.4555-29.1736      c-6.0302-4.7411-16.6359-9.5632-32.91-5.61c-11.395,2.7474-20.6817,15.9043-22.2069,26.4659      c-0.4465,3.0574-0.6726,6.1049-0.6726,9.0557c0,46.2411,54.6845,68.6271,90.8709,83.4407      c1.021,0.4181,2.0293,0.8304,3.0219,1.2385c-4.5534,6.4463-7.0335,14.8151-7.0335,23.9063      c0,14.2349,6.1469,27.7046,15.659,34.3157c4.4297,3.079,9.4066,4.6379,14.726,4.6825l4.7952-4.7952      c-6.2764,1.1239-12.0863-0.0397-17.0276-3.4738c-8.3731-5.8204-13.784-17.8823-13.784-30.7292      c0-9.1992,2.7737-17.5155,7.8107-23.417l1.9525-2.2881l-2.7801-1.149c-1.8401-0.7594-3.7386-1.5372-5.6854-2.3336      c-35.1049-14.3713-88.1569-36.0875-88.1569-79.3977c0-2.7404,0.2112-5.5745,0.6278-8.4286      c1.2934-8.9618,9.3763-20.5487,18.9105-22.8467c11.535-2.803,21.6259-1.1434,29.1828,4.798      c7.3798,5.802,11.786,15.4236,11.7867,25.7393c0,10.3512-4.3607,19.5305-11.9645,25.1832l-3.3184,2.4673l3.9085,1.351      c17.8589,6.1688,32.8069,5.098,44.4286-3.1841c13.5373-9.6458,21.301-28.7426,21.301-52.3943      c0-30.9923-14.6785-67.4595-41.8817-73.9952l-0.3719-0.0569c-34.0213-2.1644-57.8436,3.6177-72.8271,17.679      c-11.5706,10.8574-17.593,26.8285-17.9129,47.4868c-8.9355-9.1155-14.34-24.9103-14.34-42.5892      c0-20.4279,6.8565-38.6799,18.3424-48.8235c7.9216-6.9966,17.6051-9.8378,28.7817-8.4457l4.52,0.5632l-2.3905-3.8766      c-38.4012-62.2733-59.8174-121.6812-65.4687-181.6038l0.0028-48.9473c1.3915-2.6962,2.0321-6.0224,2.4154-9.5107      c11.8507,68.5118,19.81,110.9646,51.1038,160.1521c18.6325,29.3157,43.2476,49.3795,67.0529,68.7806      c17.4963,14.2604,34.0227,27.7301,48.2213,44.5232c16.4617,19.4637,34.1792,56.14,34.1792,90.6747      c0,22.0164-7.2425,38.8649-21.5257,50.0806l-12.1287,9.5236l16.5172-6.6765c16.9808-6.8516,30.3936-12.2639,39.8233-24.4865      c9.8549-12.8127,14.852-27.868,14.852-44.745c0-43.8492-33.4397-88.7194-47.8167-105.9746      c-12.7345-15.2843-28.2136-31.1829-44.6021-48.0172c-50.2939-51.6591-107.2992-110.2123-115.23-181.0237      c-0.7366-6.5955-1.1099-12.9663-1.1099-18.939c0-28.6772,8.3752-49.2856,24.8953-61.2551      c15.5566-11.3082,34.5723-12.6549,52.1703-3.6931c18.8551,9.6031,32.0247,29.155,32.0276,47.5493      c0.0014,10.6512-4.3444,20.4734-12.5753,28.4412c-8.9113,2.2397-16.5129,1.0026-22.6036-3.6832      c-8.5843-6.6026-13.4249-19.6044-13.1747-35.405l0.0555-3.4926l-3.1648,1.4803      c-23.0338,10.7707-25.5202,42.0417-25.5202,54.9853c0,6.5557,0.5852,13.2365,1.6923,19.3187      c7.6151,41.8326,42.5373,73.5815,70.598,99.0919c8.1967,7.453,15.9391,14.4907,22.4557,21.2299l5.8916,6.092l-2.2134-8.181      c-1.3168-4.8691-2.8562-9.5818-4.3451-14.1395c-4.151-12.7061-8.0723-24.7097-8.0723-40.9752      c0-1.9141,0.0569-3.878,0.1685-5.8347l0.0704-1.2386l-1.0267-0.6954c-2.0819-1.4092-4.1787-2.8029-6.2755-4.1965      c-22.615-15.0311-44.0703-29.2958-47.7171-61.8083c8.4954,12.9649,17.63,24.0669,38.7333,20.6369      c32.1577-5.2147,46.8042-45.0693,46.8042-79.8926c0-28.7213-9.8022-59.5073-31.1589-75.2269h-8.0712      c23.9583,13.2006,34.8615,45.372,34.8615,75.2269c0,33.033-13.4982,70.7744-43.136,75.5809      c-20.2636,3.2935-27.5396-8.0403-36.7509-22.3889c-0.7124-1.1107-1.4313-2.2298-2.1629-3.3518l-4.1531-6.3708l0.1401,7.6037      c0.7494,40.7647,25.885,57.4725,50.1929,73.6285c1.7442,1.1604,3.489,2.3194,5.2246,3.4883      c-0.0739,1.6254-0.1116,3.248-0.1116,4.8393c0,16.9609,4.2136,29.8589,8.2885,42.3318c0.6179,1.8927,1.245,3.8125,1.86,5.755      c-5.1208-4.9473-10.7252-10.0426-16.5577-15.3455c-29.0093-26.372-61.8887-56.2637-69.2393-96.6415      c-1.0609-5.829-1.6211-12.2383-1.6211-18.5366c0-11.4817,2.0136-38.3401,19.923-49.3682      c0.5105,15.5844,5.8582,28.3474,14.8491,35.2628c7.2404,5.5702,16.5513,7.0576,26.9252,4.3046l0.5375-0.1437l0.4032-0.3811      c9.3863-8.8807,14.3471-19.9472,14.345-32.0005c-0.0029-19.9714-14.1544-41.1245-34.4138-51.4415      c-19.1139-9.7339-39.7885-8.2565-56.7181,4.05c-17.716,12.834-26.6984,34.6328-26.6984,64.7903      c0,6.1334,0.3825,12.6691,1.1369,19.4239c8.0979,72.3002,65.6578,131.4238,116.4416,183.5862      c16.3274,16.7717,31.7496,32.6121,44.376,47.7655c14.0727,16.8911,46.8042,60.7573,46.8042,103.1788      c0,15.8915-4.6928,30.0494-13.9447,42.0801c-7.1814,9.3087-17.241,14.4879-29.7366,19.7253      c9.7738-11.5685,14.8804-27.0731,14.8804-45.5016c0-35.6324-18.2521-73.4436-35.2116-93.496      c-14.4602-17.1017-31.916-31.3293-48.7979-45.0878c-23.5351-19.1821-47.8721-39.0184-66.1257-67.7397      c-31.7083-49.8374-39.1578-92.9642-51.4991-164.4126l-3.4499-19.9273l-2.4666,10.3099      c-0.7722,3.228-1.031,6.9211-1.2813,10.4905c-0.3576,5.0881-0.7267,10.3497-2.5889,13.6034l-0.2887,0.5034v49.7237      l-0.0348,0.2233l0.0256,0.2716C13.5764,1033.12,34.4856,1092.0785,71.8986,1153.702z" /><path
             id="path104"
             d="M220.6942,807.9855c5.9592,11.3118,9.0803,23.9526,9.3044,37.9007c0.4721,26.8812-9.7098,51.3804-20.462,77.3372      c-10.4592,25.2515-21.2761,51.3619-21.2761,79.6893c0,8.184,0.9186,16.3565,2.7303,24.2888l1.277,5.5901l2.7659-5.0227      c5.5339-10.0511,26.1481-43.5704,59.0559-52.8792c14.896-4.2136,29.8305-2.4957,44.4308,5.1038      c-7.699,7.8157-17.0476,14.2988-26.1118,20.5829c-15.3511,10.6441-31.2241,21.6494-40.1148,39.5502l-0.8831,1.7791l1.688,1.0481      c5.7096,3.5437,13.8907,4.3444,21.803,5.1194c5.4863,0.5375,11.1361,1.0907,15.6512,2.5582      c-2.9038,7.7488-8.3318,10.755-14.5462,14.1979c-6.1405,3.4001-13.1,7.2552-17.571,16.4276      c-4.9146,10.0923-7.5127,22.7145-7.5127,36.5056c0,39.1934,19.5561,78.3226,41.8526,83.735      c15.9228,3.8623,31.3933,1.2927,42.4427-7.0477c8.4286-6.3623,13.2948-15.5359,13.703-25.8345      c0.0227-0.6058,0.0341-1.2115,0.0341-1.8032c0-15.2899-7.6279-27.0432-20.9298-32.2479      c-13.1242-5.1351-28.7654-2.2397-39.4607,6.9453c-0.4863-3.2964-0.7324-6.5159-0.7324-9.6132      c0-18.417,8.8964-33.3615,24.4068-40.9993c17.0391-8.3916,38.6216-6.2344,53.7054,5.3654      c19.0086,14.6245,31.2924,46.0007,31.2938,79.9353c0.0028,33.6003-11.5855,61.3248-30.9966,74.1617      c-16.3195,10.7905-37.12,10.9327-61.8268,0.4209l-3.211-1.3666l0.1749,3.4855c2.773,55.1644-14.9686,93.4391-54.4449,117.2515      l-2.19,1.3197l1.6467,1.9568c2.2438,2.6659,4.4924,5.8634,6.6678,9.4855l3.1605-3.1605      c-1.609-2.6202-3.2498-5.037-4.9009-7.1711c36.8071-23.1127,54.7094-58.7139,54.7094-108.7448      c0-2.527-0.0469-5.1166-0.1394-7.7332c24.4665,9.6202,46.1116,8.9121,62.7639-2.1003      c20.6369-13.6475,32.9576-42.7343,32.9547-77.8051c-0.0014-35.7847-12.6464-67.7397-33.0003-83.3979      c-16.3721-12.5909-39.8005-14.9316-58.2972-5.8219c-17.0604,8.4015-26.8456,24.7736-26.8456,44.9185      c0,4.6245,0.5105,9.4923,1.5188,14.4667l0.8475,4.1851l2.8967-3.1371c9.4026-10.1763,24.9088-13.7854,37.7059-8.7783      c12.0007,4.6942,18.6617,15.634,18.1227,29.812c-0.3555,8.9633-4.606,16.9595-11.9695,22.5183      c-9.9999,7.5497-24.1351,9.8406-38.7809,6.2883c-20.1563-4.8933-38.5136-42.7798-38.5136-79.4888      c0-13.1313,2.4445-25.0936,7.0719-34.5916c3.8652-7.9337,9.643-11.1333,15.7592-14.5206      c6.9155-3.8311,14.067-7.7915,17.2638-18.72l0.5475-1.87l-1.7961-0.7551c-5.3725-2.2639-12.2041-2.9337-18.811-3.5793      c-6.5614-0.6427-13.3204-1.3054-18.1469-3.5338c8.5238-15.7848,22.7202-25.6269,37.7172-36.025      c10.0355-6.9595,20.4136-14.1537,28.7782-23.2535l1.8586-2.0222l-2.3891-1.3552c-16.4376-9.3273-33.343-11.631-50.2455-6.85      c-30.1661,8.5338-50.3224,36.1487-58.7658,49.9483c-0.9997-5.8361-1.5045-11.7746-1.5045-17.7217      c0-27.4585,10.6477-53.1608,20.9433-78.0183c10.2303-24.6969,20.809-50.2342,20.809-77.34c0-0.5788-0.0043-1.1604-0.0142-1.7392      c-0.2209-13.7403-3.2482-26.3891-8.9523-37.8296H220.6942z" /><path
             id="path106"
             d="M183.801,1403.4381c0,3.2792,0.7736,7.0619,1.592,11.0679c0.8547,4.1823,1.7385,8.5067,1.7385,12.3434      c0,0.7473-0.0458,1.4382-0.1134,2.1038l4.392-4.392c-0.2451-3.5909-0.997-7.3104-1.7367-10.9298      c-0.7736-3.7841-1.5038-7.3563-1.5038-10.1932c0-0.8263,0.0647-1.5573,0.1927-2.1871      c7.1396,1.6652,12.5811,5.1823,16.6198,9.7382l3.1382-3.1381c-4.9283-5.4822-11.7157-9.6163-20.7705-11.2716l-1.5479-0.283      l-0.758,1.3794C184.2077,1399.1946,183.801,1401.0789,183.801,1403.4381z" /><path
             id="path108"
             d="M93.3816,812.2503c2.7027-1.4517,5.4316-2.9078,8.2552-4.2648h-9.5442c-0.2585,0.1389-0.5209,0.2787-0.778,0.4167      c-3.7109,1.9937-7.2625,3.9007-10.8674,5.4109c0.1887-2.0178,0.4591-3.9544,0.7955-5.8276h-4.4146      c-0.4855,2.8417-0.826,5.8244-0.9855,8.9818l-0.1628,3.2238l3.0539-1.0481C83.7756,817.4109,88.4414,814.9053,93.3816,812.2503z      " /></g></g><g
         id="g110"><g
           id="g114"><path
             id="path116"
             d="M462.2692,1544.0726c0.337,10.5667-3.0276,20.1221-9.8492,27.8474c-10.9612,12.4097-30.4363,19.8186-52.0985,19.8186      c-21.5641,0-39.9513-7.3293-49.1847-19.6074l-2.719-3.6134l4.5207,0.1173c21.8087,0.5624,38.2832-4.9843,49.0951-16.5072      c13.164-14.0287,18.5678-36.7218,16.5158-69.3701c-6.1376-24.9116-40.4518-38.3529-69.7036-38.3529      c-22.2211,0-40.021,7.0953-48.8363,19.4673c-6.8501,9.6138-8.1228,21.9664-3.7955,36.7609      c6.5059-6.7882,15.7877-10.61,26.0549-10.61c11.6438,0.0007,22.551,5.0305,29.1735,13.4556      c4.7411,6.0302,9.5633,16.6359,5.61,32.9099c-2.7474,11.3949-15.9043,20.6816-26.4659,22.2069      c-3.0574,0.4465-6.1049,0.6726-9.0557,0.6726c-46.2411,0-68.6271-54.6846-83.4407-90.871      c-0.4181-1.021-0.8305-2.0292-1.2386-3.0219c-6.4462,4.5535-14.815,7.0336-23.9062,7.0336      c-14.2348,0-27.7045-6.1469-34.3157-15.6591c-3.0789-4.4297-4.6379-9.4066-4.6825-14.726l4.7952-4.7953      c-1.1239,6.2765,0.0396,12.0864,3.4737,17.0277c5.8205,8.373,17.8824,13.7839,30.7292,13.7839      c9.1993,0,17.5155-2.7737,23.417-7.8107l2.2881-1.9524l1.149,2.78c0.7594,1.8402,1.5372,3.7386,2.3336,5.6854      c14.3713,35.105,36.0875,88.157,79.3978,88.157c2.7403,0,5.5745-0.2112,8.4285-0.6279      c8.9618-1.2933,20.5487-9.3763,22.8468-18.9105c2.8029-11.535,1.1433-21.6259-4.798-29.1827      c-5.802-7.3798-15.4236-11.786-25.7392-11.7867c-10.3512,0-19.5305,4.3607-25.1832,11.9645l-2.4673,3.3184l-1.351-3.9084      c-6.1689-17.8589-5.0981-32.8069,3.184-44.4287c9.6458-13.5372,28.7426-21.3009,52.3943-21.3009      c30.9923,0,67.4596,14.6785,73.9953,41.8817l0.0569,0.3718c2.1644,34.0214-3.6177,57.8436-17.679,72.8271      c-10.8574,11.5706-26.8286,17.593-47.4868,17.913c9.1154,8.9354,24.9102,14.34,42.5892,14.34      c20.4279,0,38.68-6.8564,48.8235-18.3424c6.9965-7.9215,9.8378-17.605,8.4456-28.7817l-0.5631-4.52l3.8765,2.3905      c62.2733,38.4012,121.6812,59.8175,181.6039,65.4688l48.9472-0.0029c2.6962-1.3915,6.0224-2.0321,9.5107-2.4153      c-68.5119-11.8507-110.9646-19.8101-160.1522-51.1038c-29.3157-18.6326-49.3795-43.2477-68.7806-67.0529      c-14.2604-17.4963-27.7301-34.0228-44.5232-48.2213c-19.4637-16.4618-56.14-34.1792-90.6747-34.1792      c-22.0163,0-38.8648,7.2426-50.0806,21.5258l-9.5235,12.1287l6.6766-16.5172c6.8515-16.9807,12.2638-30.3936,24.4864-39.8232      c12.8127-9.8549,27.8681-14.8519,44.7451-14.8519c43.8492,0,88.7193,33.4397,105.9746,47.8167      c15.2843,12.7345,31.1829,28.2136,48.0172,44.6022c51.6591,50.2938,110.2123,107.2992,181.0237,115.23      c6.5955,0.7366,12.9663,1.1099,18.939,1.1099c28.6772,0,49.2856-8.3751,61.2551-24.8951      c11.3082-15.5566,12.6549-34.5724,3.6931-52.1704c-9.6032-18.855-29.155-32.0247-47.5494-32.0276      c-10.6512-0.0013-20.4733,4.3445-28.4412,12.5753c-2.2397,8.9113-1.0026,16.5129,3.6832,22.6036      c6.6026,8.5842,19.6045,13.4249,35.405,13.1746l3.4926-0.0554l-1.4803,3.1648c-10.7707,23.0338-42.0417,25.5203-54.9853,25.5203      c-6.5557,0-13.2365-0.5852-19.3187-1.6923c-41.8326-7.6151-73.5815-42.5374-99.0918-70.598      c-7.453-8.1968-14.4908-15.9392-21.2299-22.4558l-6.0921-5.8915l8.1811,2.2134c4.8691,1.3169,9.5818,2.8562,14.1395,4.3451      c12.7061,4.151,24.7097,8.0723,40.9752,8.0723c1.9141,0,3.878-0.0569,5.8347-0.1685l1.2386-0.0704l0.6954,1.0267      c1.4092,2.0819,2.8029,4.1787,4.1965,6.2756c15.0311,22.6149,29.2958,44.0702,61.8083,47.717      c-12.9648-8.4954-24.0669-17.6299-20.6369-38.7333c5.2147-32.1577,45.0693-46.8042,79.8926-46.8042      c28.7213,0,59.5073,9.8022,75.2269,31.1589v8.0712c-13.2006-23.9584-45.372-34.8615-75.2269-34.8615      c-33.033,0-70.7744,13.4982-75.5809,43.136c-3.2935,20.2635,8.0403,27.5396,22.3889,36.7509      c1.1107,0.7125,2.2298,1.4314,3.3518,2.163l6.3708,4.1532l-7.6038-0.1401c-40.7647-0.7494-57.4725-25.885-73.6285-50.193      c-1.1604-1.7441-2.3193-3.489-3.4883-5.2246c-1.6254,0.074-3.248,0.1117-4.8393,0.1117      c-16.9609,0-29.8589-4.2136-42.3318-8.2885c-1.8928-0.6179-3.8126-1.245-5.7551-1.8601      c4.9473,5.1208,10.0425,10.7252,15.3454,16.5577c26.3721,29.0093,56.2637,61.8887,96.6417,69.2393      c5.829,1.0609,12.2382,1.6212,18.5365,1.6212c11.4817,0,38.3401-2.0137,49.3682-19.9231      c-15.5844-0.5105-28.3473-5.8582-35.2628-14.8491c-5.5703-7.2404-7.0577-16.5513-4.3046-26.9252l0.1436-0.5376l0.3811-0.4032      c8.8807-9.3862,19.9472-14.347,32.0005-14.345c19.9714,0.0028,41.1245,14.1544,51.4415,34.4138      c9.7339,19.1139,8.2565,39.7885-4.05,56.718c-12.834,17.7161-34.6328,26.6985-64.7903,26.6985      c-6.1334,0-12.6691-0.3826-19.4239-1.137c-72.3002-8.0979-131.4237-65.6578-183.5862-116.4417      c-16.7718-16.3274-32.6121-31.7495-47.7655-44.376c-16.8912-14.0728-60.7574-46.8042-103.1788-46.8042      c-15.8915,0-30.0495,4.6927-42.0801,13.9447c-9.3088,7.1814-14.4879,17.241-19.7254,29.7366      c11.5685-9.7738,27.0732-14.8804,45.5016-14.8804c35.6325,0,73.4436,18.2521,93.496,35.2115      c17.1017,14.4602,31.3293,31.916,45.0877,48.798c19.1822,23.535,39.0184,47.8721,67.7397,66.1256      c49.8375,31.7084,92.9642,39.1578,164.4126,51.4991l19.9273,3.45l-10.3099,2.4666c-3.228,0.7721-6.9211,1.031-10.4905,1.2813      c-5.0881,0.3577-10.3497,0.7267-13.6034,2.5889l-0.5034,0.2887h-49.7237l-0.2233,0.0348l-0.2716-0.0256      C582.8512,1602.3948,523.8926,1581.4856,462.2692,1544.0726z" /><path
             id="path118"
             d="M807.9857,1395.277c-11.3118-5.9592-23.9526-9.0803-37.9007-9.3044c-26.8812-0.4722-51.3804,9.7098-77.3372,20.462      c-25.2515,10.4592-51.3619,21.2761-79.6893,21.2761c-8.184,0-16.3565-0.9187-24.2888-2.7303l-5.5901-1.2771l5.0227-2.7659      c10.0511-5.5339,43.5704-26.1481,52.8792-59.0559c4.2136-14.896,2.4957-29.8306-5.1038-44.4308      c-7.8157,7.699-14.2988,17.0476-20.5829,26.1118c-10.6441,15.3511-21.6494,31.2241-39.5502,40.1149l-1.7791,0.8831l-1.048-1.688      c-3.5438-5.7096-4.3444-13.8906-5.1194-21.803c-0.5375-5.4863-1.0908-11.1361-2.5583-15.6511      c-7.7488,2.9038-10.755,8.3318-14.1978,14.5461c-3.4001,6.1405-7.2554,13.1001-16.4276,17.571      c-10.0923,4.9146-22.7145,7.5127-36.5056,7.5127c-39.1933,0-78.3227-19.5562-83.735-41.8525      c-3.8623-15.9229-1.2927-31.3934,7.0477-42.4427c6.3623-8.4286,15.536-13.2948,25.8345-13.703      c0.6058-0.0227,1.2116-0.0341,1.8032-0.0341c15.29,0,27.0433,7.6279,32.248,20.9298      c5.1351,13.1241,2.2397,28.7654-6.9453,39.4607c3.2963,0.4863,6.5159,0.7323,9.6131,0.7323      c18.4171,0,33.3615-8.8964,40.9994-24.4067c8.3915-17.0391,6.2343-38.6217-5.3654-53.7054      c-14.6245-19.0087-46.0007-31.2924-79.9353-31.2938c-33.6004-0.0028-61.3248,11.5856-74.1617,30.9966      c-10.7906,16.3196-10.9328,37.12-0.4209,61.8268l1.3666,3.2111l-3.4855-0.1749      c-55.1645-2.7729-93.4391,14.9686-117.2515,54.4449l-1.3197,2.1899l-1.9568-1.6467c-2.666-2.2439-5.8635-4.4924-9.4855-6.6678      l3.1605-3.1605c2.6201,1.6089,5.0369,3.2499,7.1711,4.9009c23.1127-36.8071,58.7139-54.7094,108.7448-54.7094      c2.527,0,5.1165,0.0469,7.7332,0.1394c-9.6202-24.4666-8.912-46.1117,2.1004-62.764      c13.6475-20.6368,42.7343-32.9575,77.805-32.9547c35.7847,0.0015,67.7397,12.6464,83.398,33.0002      c12.5909,16.3722,14.9316,39.8005,5.8219,58.2972c-8.4016,17.0604-24.7737,26.8456-44.9185,26.8456      c-4.6245,0-9.4922-0.5105-14.4666-1.5187l-4.1851-0.8475l3.1371-2.8967c10.1762-9.4027,13.7854-24.9088,8.7784-37.7059      c-4.6942-12.0007-15.6341-18.6616-29.812-18.1227c-8.9633,0.3556-16.9595,4.6061-22.5183,11.9695      c-7.5497,9.9999-9.8406,24.1351-6.2883,38.7809c4.8933,20.1563,42.7798,38.5137,79.4888,38.5137      c13.1313,0,25.0936-2.4446,34.5915-7.0719c7.9337-3.8652,11.1333-9.6431,14.5206-15.7593      c3.8311-6.9154,7.7914-14.067,18.72-17.2638l1.87-0.5475l0.7551,1.796c2.2639,5.3726,2.9337,12.2041,3.5793,18.811      c0.6428,6.5614,1.3054,13.3204,3.5338,18.1469c15.7849-8.5238,25.6269-22.7202,36.025-37.7172      c6.9595-10.0355,14.1537-20.4137,23.2535-28.7782l2.0222-1.8586l1.3552,2.389c9.3273,16.4375,11.631,33.343,6.8501,50.2456      c-8.5338,30.166-36.1487,50.3223-49.9484,58.7657c5.8361,0.9998,11.7746,1.5045,17.7217,1.5045      c27.4585,0,53.1608-10.6476,78.0183-20.9434c24.6969-10.2302,50.2342-20.809,77.34-20.809c0.5788,0,1.1604,0.0043,1.7392,0.0143      c13.7403,0.2209,26.3891,3.2482,37.8296,8.9523V1395.277z" /><path
             id="path120"
             d="M212.5332,1432.1702c-3.2793,0-7.062-0.7736-11.0679-1.5919c-4.1823-0.8547-8.5067-1.7385-12.3435-1.7385      c-0.7473,0-1.4382,0.0458-2.1037,0.1134l4.392-4.392c3.5909,0.2451,7.3105,0.9971,10.9298,1.7367      c3.7841,0.7736,7.3563,1.5038,10.1933,1.5038c0.8262,0,1.5571-0.0647,2.1871-0.1926      c-1.6652-7.1396-5.1823-12.5812-9.7383-16.6198l3.1381-3.1383c5.4822,4.9283,9.6163,11.7157,11.2716,20.7705l0.283,1.548      l-1.3794,0.7579C216.7766,1431.7635,214.8923,1432.1702,212.5332,1432.1702z" /><path
             id="path122"
             d="M803.7209,1522.5896c1.4518-2.7026,2.9078-5.4316,4.2648-8.2552v9.5443c-0.1389,0.2584-0.2787,0.5209-0.4167,0.778      c-1.9937,3.7108-3.9007,7.2625-5.4109,10.8673c2.0177-0.1887,3.9543-0.4591,5.8276-0.7954v4.4146      c-2.8416,0.4856-5.8244,0.826-8.9818,0.9855l-3.2238,0.1628l1.048-3.0538      C798.5602,1532.1957,801.0659,1527.5299,803.7209,1522.5896z" /></g></g></g></g></svg>